<svg width="45" height="33" viewBox="0 0 45 33" fill="none" xmlns="http://www.w3.org/2000/svg">
<path d="M3.51258 24.0029C3.51258 24.3857 3.78054 24.692 4.16336 24.692H4.20164C4.54617 24.692 4.85242 24.424 4.85242 24.0412C4.85242 23.8881 5.00554 20.481 2.97664 18.4904C2.40242 17.9162 2.17273 17.3037 2.36414 16.7295C2.55555 16.1552 3.01492 15.6959 3.62742 15.5427C3.97195 15.4662 4.23992 15.1217 4.16336 14.7771C4.08679 14.4326 3.74226 14.1646 3.39773 14.2412C2.32586 14.4709 1.44539 15.2748 1.10086 16.3467C0.909454 16.9592 0.794611 18.2224 2.05789 19.4474C3.62742 21.017 3.51258 23.9646 3.51258 24.0029Z" fill="#FE5943"/>
<path d="M43.8992 15.9257L43.057 13.7436C42.6742 12.7483 41.564 12.2507 40.5687 12.6335L3.93356 26.5296C2.93825 26.9124 2.4406 28.0225 2.82341 29.0178L3.66559 31.1999C4.04841 32.1952 5.15856 32.6928 6.15388 32.31L42.789 18.4139C43.7843 18.0311 44.282 16.921 43.8992 15.9257ZM8.48903 30.0132L7.22575 26.721L30.2328 17.9928L31.4961 21.285L8.48903 30.0132ZM5.65622 31.085C5.34997 31.1999 5.00544 31.0467 4.89059 30.7405L4.04841 28.5585C3.93356 28.2522 4.08669 27.9077 4.39294 27.7928L5.96247 27.1803L7.22575 30.4725L5.65622 31.085ZM42.3297 17.1507L32.7593 20.7874L31.4961 17.4952L41.0664 13.8585C41.3726 13.7436 41.7172 13.8967 41.832 14.203L42.6742 16.385C42.789 16.6913 42.6359 17.0358 42.3297 17.1507Z" fill="white"/>
<path d="M6.76695 14.3177C6.65211 15.5044 6.00133 16.538 4.96773 17.1888C4.66148 17.3802 4.54664 17.8013 4.73805 18.1075C4.92945 18.4138 5.31226 18.5286 5.6568 18.3372C7.03492 17.495 7.95367 16.0786 8.1068 14.4708C8.33648 12.3271 7.37945 10.145 5.38883 8.30752C4.50836 7.58018 3.97242 6.54658 3.93414 5.39815C3.89586 3.36924 5.54195 1.68486 5.58023 1.68486C5.8482 1.41689 5.8482 0.995801 5.58023 0.727832C5.31226 0.459863 4.89117 0.459863 4.6232 0.727832C4.54664 0.804395 2.55601 2.8333 2.5943 5.43643C2.63258 6.85283 3.24508 8.1544 4.47008 9.30283C6.15445 10.8341 6.95836 12.6333 6.76695 14.3177Z" fill="#FE5943"/>
</svg>
