<svg width="44" height="32" viewBox="0 0 44 32" fill="none" xmlns="http://www.w3.org/2000/svg">
<path d="M3.40016 23.3498C3.40016 23.7248 3.66266 24.0248 4.03766 24.0248H4.07516C4.41266 24.0248 4.71266 23.7623 4.71266 23.3873C4.71266 23.2373 4.86266 19.8998 2.87516 17.9498C2.31267 17.3873 2.08767 16.7873 2.27516 16.2248C2.46266 15.6623 2.91266 15.2123 3.51266 15.0623C3.85016 14.9873 4.11266 14.6498 4.03766 14.3123C3.96266 13.9748 3.62516 13.7123 3.28766 13.7873C2.23767 14.0123 1.37517 14.7998 1.03767 15.8498C0.850167 16.4498 0.737667 17.6873 1.97517 18.8873C3.51266 20.4248 3.40016 23.3123 3.40016 23.3498V23.3498Z" fill="#FE5943"/>
<path d="M42.9626 15.4374L42.1376 13.2999C41.7626 12.3249 40.6751 11.8374 39.7001 12.2124L3.81257 25.8249C2.83757 26.1999 2.35007 27.2874 2.72507 28.2624L3.55007 30.3999C3.92507 31.3749 5.01257 31.8624 5.98757 31.4874L41.8751 17.8749C42.8501 17.4999 43.3376 16.4124 42.9626 15.4374ZM8.27507 29.2374L7.03757 26.0124L29.5751 17.4624L30.8126 20.6874L8.27507 29.2374ZM5.50007 30.2874C5.20007 30.3999 4.86257 30.2499 4.75007 29.9499L3.92507 27.8124C3.81257 27.5124 3.96257 27.1749 4.26257 27.0624L5.80007 26.4624L7.03757 29.6874L5.50007 30.2874ZM41.4251 16.6374L32.0501 20.1999L30.8126 16.9749L40.1876 13.4124C40.4876 13.2999 40.8251 13.4499 40.9376 13.7499L41.7626 15.8874C41.8751 16.1874 41.7251 16.5249 41.4251 16.6374Z" fill="#052356"/>
<path d="M6.58803 13.8624C6.47553 15.0249 5.83803 16.0374 4.82553 16.6749C4.52553 16.8624 4.41303 17.2749 4.60053 17.5749C4.78803 17.8749 5.16303 17.9874 5.50053 17.7999C6.85053 16.9749 7.75053 15.5874 7.90053 14.0124C8.12553 11.9124 7.18803 9.7749 5.23803 7.9749C4.37553 7.2624 3.85053 6.2499 3.81303 5.1249C3.77553 3.1374 5.38803 1.4874 5.42553 1.4874C5.68803 1.2249 5.68803 0.812402 5.42553 0.549902C5.16303 0.287402 4.75053 0.287402 4.48803 0.549902C4.41303 0.624902 2.46303 2.6124 2.50053 5.1624C2.53803 6.5499 3.13803 7.8249 4.33803 8.9499C5.98803 10.4499 6.77553 12.2124 6.58803 13.8624Z" fill="#FE5943"/>
</svg>
