<svg width="33" height="33" viewBox="0 0 33 33" fill="none" xmlns="http://www.w3.org/2000/svg">
<path d="M25.75 7.25C26.3886 7.25 26.9062 6.73233 26.9062 6.09375C26.9062 5.45517 26.3886 4.9375 25.75 4.9375C25.1114 4.9375 24.5938 5.45517 24.5938 6.09375C24.5938 6.73233 25.1114 7.25 25.75 7.25Z" fill="#052356"/>
<path d="M28.0625 0.3125C23.1577 0.318009 18.4553 2.26888 14.9871 5.73711C11.5189 9.20534 9.56801 13.9077 9.5625 18.8125V21.125H1.46875C1.2401 21.125 1.0166 21.1929 0.826499 21.3199C0.6364 21.447 0.488239 21.6276 0.400745 21.8388C0.313252 22.0501 0.290354 22.2825 0.334948 22.5068C0.379542 22.731 0.489624 22.937 0.651279 23.0987L9.90128 32.3487C10.063 32.5104 10.269 32.6205 10.4932 32.6651C10.7175 32.7096 10.9499 32.6867 11.1612 32.5993C11.3724 32.5118 11.553 32.3636 11.6801 32.1735C11.8071 31.9834 11.8749 31.7599 11.875 31.5312V23.4375H14.1875C19.0923 23.432 23.7947 21.4811 27.2629 18.0129C30.7311 14.5447 32.682 9.84231 32.6875 4.9375V0.3125H28.0625ZM9.5625 28.7401L4.25994 23.4375H9.5625V28.7401ZM11.875 21.125V18.8125C11.8753 14.638 13.4952 10.6265 16.3936 7.62231L25.3777 16.6064C22.3735 19.5048 18.362 21.1247 14.1875 21.125H11.875ZM30.375 4.9375C30.3748 8.54658 29.1613 12.0508 26.9294 14.887L18.113 6.07062C20.9492 3.83874 24.4534 2.6252 28.0625 2.625H30.375V4.9375Z" fill="#052356"/>
</svg>
