<svg width="38" height="46" viewBox="0 0 38 46" fill="none" xmlns="http://www.w3.org/2000/svg">
<path d="M18.0473 0.737188C17.9772 0.662318 17.8924 0.602639 17.7982 0.561842C17.7041 0.521045 17.6026 0.499997 17.5 0.5H0.999999C0.897393 0.5 0.795878 0.521054 0.701736 0.561859C0.607593 0.602664 0.522824 0.662352 0.452673 0.73723C0.382522 0.812109 0.328482 0.900585 0.293895 0.997185C0.259308 1.09379 0.24491 1.19646 0.251592 1.29884L2.5 35.7743V41.75C2.50112 42.7442 2.89656 43.6974 3.59958 44.4004C4.3026 45.1034 5.25578 45.4989 6.25 45.5H34C34.9942 45.4989 35.9474 45.1034 36.6504 44.4004C37.3534 43.6974 37.7489 42.7442 37.75 41.75V31.25C37.7492 30.5206 37.536 29.8073 37.1364 29.1971C36.7369 28.587 36.1682 28.1064 35.5 27.8141V25.25C35.5 22.7304 34.5057 20.5108 32.6245 18.8311C31.78 18.0706 30.8076 17.4655 29.7523 17.0437C29.5748 16.9732 29.3766 16.9757 29.201 17.0507C29.0254 17.1258 28.8865 17.2672 28.8148 17.4442C28.7778 17.514 28.4272 18.1353 27.3473 18.7553C26.2589 19.3801 24.2038 20.125 20.5947 20.125C19.2144 20.125 18.0139 20.2653 16.9932 20.5459L18.2484 1.29903C18.2551 1.1966 18.2407 1.09389 18.2061 0.997248C18.1716 0.900606 18.1175 0.812092 18.0473 0.737188ZM16.6995 2L16.6017 3.5H1.89831L1.80053 2H16.6995ZM12.25 41V32H36.25V41H12.25ZM7.75 41V40.25C7.75022 40.0512 7.82931 39.8605 7.96992 39.7199C8.11052 39.5793 8.30116 39.5002 8.5 39.5H10C10.1988 39.5002 10.3895 39.5793 10.5301 39.7199C10.6707 39.8605 10.7498 40.0512 10.75 40.25V41H7.75ZM10.75 38.129C10.5092 38.0435 10.2555 37.9999 10 38H8.5C7.90347 38.0007 7.33156 38.2379 6.90975 38.6597C6.48794 39.0816 6.25067 39.6535 6.25 40.25V41H4V36.5H10.75V38.129ZM4.129 42.5H10.8255C10.9367 43.0441 11.1678 43.5565 11.5021 44H6.25C5.78489 43.9994 5.33136 43.8549 4.95162 43.5864C4.57188 43.3178 4.28454 42.9383 4.129 42.5ZM34 44H14.5C14.0349 43.9994 13.5814 43.8549 13.2016 43.5864C12.8219 43.3178 12.5345 42.9383 12.379 42.5H36.121C35.9655 42.9383 35.6781 43.3178 35.2984 43.5864C34.9186 43.8549 34.4651 43.9994 34 44ZM36.121 30.5H12.379C12.5345 30.0617 12.8219 29.6822 13.2016 29.4136C13.5814 29.1451 14.0349 29.0006 14.5 29H34C34.4651 29.0006 34.9186 29.1451 35.2984 29.4136C35.6781 29.6822 35.9655 30.0617 36.121 30.5ZM14.5 27.5V26H34V27.5H14.5ZM28.2686 19.9531C28.8358 19.6193 29.3429 19.1925 29.7686 18.6906C30.4554 19.0361 31.0931 19.4716 31.6649 19.9857C33.0255 21.2166 33.7967 22.7325 33.9646 24.5001H14.5411C14.6281 24.04 14.8371 23.6118 15.1463 23.2603C16.0744 22.1905 17.9588 21.6251 20.5947 21.6251C23.8656 21.625 26.4471 21.0625 28.2686 19.9531ZM13.9811 22.3143C13.3072 23.1018 12.9588 24.1166 13.0067 25.1519C13.0024 25.1844 13.0001 25.2172 13 25.25V27.8141C12.3318 28.1064 11.7631 28.587 11.3636 29.1971C10.964 29.8073 10.7508 30.5206 10.75 31.25V35H3.95312L1.99609 5H16.5039L15.4506 21.1497C14.892 21.4419 14.3931 21.8371 13.9811 22.3143Z" fill="#052356"/>
<path d="M28.2577 34.2196C27.175 33.7557 25.7516 33.5 24.25 33.5C22.7484 33.5 21.325 33.7557 20.2423 34.2196C18.5088 34.9625 18.25 35.9672 18.25 36.5C18.25 37.0328 18.5088 38.0375 20.2423 38.7804C21.325 39.2443 22.7484 39.5 24.25 39.5C25.7516 39.5 27.175 39.2443 28.2577 38.7804C29.9912 38.0375 30.25 37.0328 30.25 36.5C30.25 35.9672 29.9912 34.9625 28.2577 34.2196ZM24.25 38C21.4585 38 19.75 37.0288 19.75 36.5C19.75 35.9712 21.4585 35 24.25 35C27.0415 35 28.75 35.9712 28.75 36.5C28.75 37.0288 27.0415 38 24.25 38Z" fill="#FE5943"/>
<path d="M13.75 6.5H4.75C4.55109 6.5 4.36032 6.57902 4.21967 6.71967C4.07902 6.86032 4 7.05109 4 7.25V11.75C4 11.9489 4.07902 12.1397 4.21967 12.2803C4.36032 12.421 4.55109 12.5 4.75 12.5H13.75C13.9489 12.5 14.1397 12.421 14.2803 12.2803C14.421 12.1397 14.5 11.9489 14.5 11.75V7.25C14.5 7.05109 14.421 6.86032 14.2803 6.71967C14.1397 6.57902 13.9489 6.5 13.75 6.5ZM13 11H5.5V8H13V11Z" fill="#FE5943"/>
<path d="M12.25 14H6.25C6.05109 14 5.86032 14.079 5.71967 14.2197C5.57902 14.3603 5.5 14.5511 5.5 14.75C5.5 14.9489 5.57902 15.1397 5.71967 15.2803C5.86032 15.421 6.05109 15.5 6.25 15.5H12.25C12.4489 15.5 12.6397 15.421 12.7803 15.2803C12.921 15.1397 13 14.9489 13 14.75C13 14.5511 12.921 14.3603 12.7803 14.2197C12.6397 14.079 12.4489 14 12.25 14Z" fill="#FE5943"/>
</svg>
