<svg width="39" height="46" viewBox="0 0 39 46" fill="none" xmlns="http://www.w3.org/2000/svg">
<path d="M18.1681 0.242129C18.0965 0.1657 18.0099 0.104778 17.9138 0.0631303C17.8177 0.021483 17.7141 -3.52494e-06 17.6094 4.33747e-10H0.765624C0.66088 2.21847e-07 0.557251 0.0214927 0.461147 0.0631476C0.365043 0.104803 0.278508 0.165734 0.206895 0.242172C0.135283 0.318611 0.0801169 0.40893 0.0448094 0.507543C0.0095019 0.606156 -0.00519603 0.710965 0.00162538 0.815486L2.29687 36.0092V42.1094C2.29801 43.1243 2.7017 44.0973 3.41936 44.815C4.13703 45.5327 5.11007 45.9364 6.125 45.9375H34.4531C35.4681 45.9364 36.4411 45.5327 37.1588 44.815C37.8764 44.0973 38.2801 43.1243 38.2813 42.1094V31.3906C38.2804 30.6461 38.0628 29.9179 37.6549 29.295C37.247 28.6721 36.6665 28.1815 35.9844 27.8831V25.2656C35.9844 22.6935 34.9693 20.4276 33.049 18.713C32.1868 17.9367 31.1942 17.3189 30.1169 16.8883C29.9357 16.8164 29.7334 16.8189 29.5541 16.8955C29.3749 16.9721 29.2331 17.1165 29.1599 17.2972C29.1222 17.3685 28.7642 18.0027 27.6618 18.6356C26.5507 19.2735 24.4528 20.0338 20.7685 20.0338C19.3595 20.0338 18.134 20.1771 17.092 20.4635L18.3734 0.815678C18.3802 0.711117 18.3655 0.606263 18.3302 0.507607C18.2949 0.408952 18.2397 0.318594 18.1681 0.242129ZM16.7922 1.53125L16.6923 3.0625H1.68265L1.58283 1.53125H16.7922ZM12.25 41.3438V32.1563H36.75V41.3438H12.25ZM7.65625 41.3438V40.5781C7.65648 40.3751 7.73721 40.1805 7.88075 40.037C8.02428 39.8935 8.21889 39.8127 8.42187 39.8125H9.95312C10.1561 39.8127 10.3507 39.8935 10.4943 40.037C10.6378 40.1805 10.7185 40.3751 10.7187 40.5781V41.3438H7.65625ZM10.7187 38.4129C10.4729 38.3257 10.214 38.2811 9.95312 38.2813H8.42187C7.81292 38.2819 7.22909 38.5241 6.79849 38.9547C6.36789 39.3853 6.12568 39.9692 6.125 40.5781V41.3438H3.82812V36.75H10.7187V38.4129ZM3.95981 42.875H10.7958C10.9093 43.4304 11.1453 43.9535 11.4865 44.4063H6.125C5.6502 44.4056 5.18722 44.2581 4.79957 43.984C4.41192 43.7098 4.11859 43.3225 3.95981 42.875ZM34.4531 44.4063H14.5469C14.0721 44.4056 13.6091 44.2581 13.2214 43.984C12.8338 43.7098 12.5405 43.3225 12.3817 42.875H36.6183C36.4595 43.3225 36.1662 43.7098 35.7786 43.984C35.3909 44.2581 34.9279 44.4056 34.4531 44.4063ZM36.6183 30.625H12.3817C12.5405 30.1775 12.8338 29.7902 13.2214 29.516C13.6091 29.2419 14.0721 29.0944 14.5469 29.0938H34.4531C34.9279 29.0944 35.3909 29.2419 35.7786 29.516C36.1662 29.7902 36.4595 30.1775 36.6183 30.625ZM14.5469 27.5625V26.0313H34.4531V27.5625H14.5469ZM28.6023 19.8584C29.1814 19.5176 29.699 19.082 30.1336 18.5696C30.8347 18.9223 31.4857 19.3669 32.0694 19.8916C33.4583 21.1482 34.2455 22.6957 34.417 24.5001H14.5888C14.6776 24.0305 14.891 23.5933 15.2067 23.2344C16.1541 22.1424 18.0777 21.5652 20.7685 21.5652C24.1076 21.5651 26.7429 20.9909 28.6023 19.8584ZM14.0172 22.2688C13.3292 23.0727 12.9736 24.1086 13.0225 25.1655C13.018 25.1987 13.0157 25.2321 13.0156 25.2656V27.8831C12.3335 28.1815 11.753 28.6721 11.3451 29.295C10.9372 29.9179 10.7196 30.6461 10.7187 31.3906V35.2188H3.78027L1.78247 4.59375H16.5925L15.5173 21.0799C14.947 21.3782 14.4378 21.7816 14.0172 22.2688Z" fill="white"/>
<path d="M28.5912 34.4221C27.4859 33.9485 26.0329 33.6875 24.5 33.6875C22.9671 33.6875 21.5141 33.9485 20.4088 34.4221C18.6392 35.1805 18.375 36.2061 18.375 36.75C18.375 37.2939 18.6392 38.3195 20.4088 39.0779C21.5141 39.5515 22.9671 39.8125 24.5 39.8125C26.0329 39.8125 27.4859 39.5515 28.5912 39.0779C30.3608 38.3195 30.625 37.2939 30.625 36.75C30.625 36.2061 30.3608 35.1805 28.5912 34.4221ZM24.5 38.2812C21.6503 38.2812 19.9062 37.2899 19.9062 36.75C19.9062 36.2101 21.6503 35.2188 24.5 35.2188C27.3497 35.2188 29.0938 36.2101 29.0938 36.75C29.0938 37.2899 27.3497 38.2812 24.5 38.2812Z" fill="#FE5943"/>
<path d="M13.7812 6.125H4.59375C4.39069 6.125 4.19595 6.20566 4.05237 6.34925C3.90879 6.49283 3.82812 6.68757 3.82812 6.89062V11.4844C3.82812 11.6874 3.90879 11.8822 4.05237 12.0258C4.19595 12.1693 4.39069 12.25 4.59375 12.25H13.7812C13.9843 12.25 14.179 12.1693 14.3226 12.0258C14.4662 11.8822 14.5469 11.6874 14.5469 11.4844V6.89062C14.5469 6.68757 14.4662 6.49283 14.3226 6.34925C14.179 6.20566 13.9843 6.125 13.7812 6.125ZM13.0156 10.7188H5.35938V7.65625H13.0156V10.7188Z" fill="#FE5943"/>
<path d="M12.25 13.7812H6.125C5.92194 13.7812 5.7272 13.8619 5.58362 14.0055C5.44004 14.1491 5.35938 14.3438 5.35938 14.5469C5.35938 14.7499 5.44004 14.9447 5.58362 15.0883C5.7272 15.2318 5.92194 15.3125 6.125 15.3125H12.25C12.4531 15.3125 12.6478 15.2318 12.7914 15.0883C12.935 14.9447 13.0156 14.7499 13.0156 14.5469C13.0156 14.3438 12.935 14.1491 12.7914 14.0055C12.6478 13.8619 12.4531 13.7812 12.25 13.7812Z" fill="#FE5943"/>
</svg>
