<svg width="48" height="33" viewBox="0 0 48 33" fill="none" xmlns="http://www.w3.org/2000/svg">
<path d="M47 32.0036C46 32.0036 45.146 31.7776 44.266 31.3886C43.35 30.9776 42.414 30.7366 41.343 30.7366C40.3228 30.7382 39.315 30.9606 38.389 31.3886C37.4765 31.7924 36.4899 32.0018 35.492 32.0036C34.4906 32.0013 33.5006 31.7919 32.584 31.3886C31.6447 30.9612 30.625 30.7389 29.593 30.7366C28.523 30.7366 27.502 30.9776 26.586 31.3886C25.706 31.7786 24.709 32.0036 23.676 32.0036C22.6732 32.0024 21.6816 31.793 20.764 31.3886C19.8206 30.9618 18.7975 30.7396 17.762 30.7366C16.7263 30.7377 15.7028 30.96 14.76 31.3886C13.8418 31.7925 12.85 32.0019 11.847 32.0036C10.8407 32.0018 9.84567 31.7925 8.924 31.3886C7.98273 30.9607 6.961 30.7384 5.927 30.7366C4.88952 30.739 3.86432 30.9612 2.919 31.3886C1.99765 31.7891 1.00459 31.9983 0 32.0036V27.7336C1 27.7336 2.031 27.5036 2.918 27.1126C3.86246 26.6858 4.88655 26.4636 5.923 26.4606C6.989 26.4606 8.018 26.7026 8.922 27.1126C9.84335 27.5193 10.8389 27.7307 11.846 27.7336C12.88 27.7336 13.872 27.5036 14.759 27.1126C15.7023 26.6844 16.726 26.4621 17.762 26.4606C18.7974 26.4641 19.8204 26.6863 20.764 27.1126C21.645 27.5036 22.644 27.7336 23.677 27.7336C24.71 27.7336 25.709 27.5036 26.589 27.1126C27.5349 26.6858 28.5603 26.4637 29.598 26.4606C30.664 26.4606 31.686 26.7026 32.595 27.1126C33.5148 27.5188 34.5086 27.7302 35.514 27.7336C36.552 27.7336 37.54 27.5036 38.432 27.1126C39.3734 26.685 40.395 26.4627 41.429 26.4606C42.5 26.4606 43.35 26.7026 44.266 27.1126C45.146 27.5036 46 27.7336 47 27.7336V32.0036ZM0.028 14.0036L0.011 23.9136C1.044 23.9136 2.037 23.6026 2.924 23.2126C3.834 22.8006 4.861 22.5156 5.926 22.5156C6.992 22.5156 8.019 22.7346 8.923 23.1466C9.84417 23.5469 10.8382 23.7522 11.8426 23.7496C12.8469 23.7471 13.8399 23.5366 14.759 23.1316C15.7014 22.7013 16.725 22.4776 17.761 22.4756C18.827 22.4756 19.848 22.7146 20.763 23.1266C21.6806 23.5315 22.6726 23.7406 23.6756 23.7404C24.6786 23.7402 25.6705 23.5309 26.588 23.1256C27.5335 22.6976 28.5591 22.475 29.597 22.4726C30.663 22.4726 31.685 22.7136 32.594 23.1256C33.5142 23.5295 34.5081 23.7385 35.513 23.7396C35.805 23.7396 36.085 23.6786 36.371 23.6466C36.892 23.5376 37.42 23.4876 37.926 23.2906L37.96 23.2736C41.72 21.7816 44.963 18.2626 46.988 15.5076L48 14.0036H0.028ZM26.804 3.00365H33.848C33.927 3.00365 35.75 2.72265 36.362 4.05665L39.009 10.0036H29.986L26.804 3.00365ZM8 9.38565C8 9.85165 7.616 10.0036 7.145 10.0036H3.272C2.8 10.0036 2 9.85165 2 9.38565V3.65665C2 3.19665 2.8 3.00365 3.272 3.00365H7.144C7.616 3.00365 8 3.19665 8 3.65665V9.38565ZM24 9.38565C24 9.85165 23.582 10.0036 23.105 10.0036H19.238C18.761 10.0036 18 9.85165 18 9.38565V3.65665C18 3.19665 18.761 3.00365 19.238 3.00365H23.105C23.582 3.00365 24 3.19665 24 3.65665V9.38565ZM16 9.38565C16 9.85165 15.584 10.0036 15.108 10.0036H11.264C10.786 10.0036 10 9.85165 10 9.38565V3.65665C10 3.19665 10.786 3.00365 11.264 3.00365H15.108C15.584 3.00365 16 3.19665 16 3.65665V9.38565ZM37.545 2.30865C36.394 -0.193353 33.279 0.00364637 33.279 0.00364637H0.005L0 12.0036H41.715L37.545 2.30865Z" fill="#052356"/>
</svg>
