<svg width="49" height="49" viewBox="0 0 49 49" fill="none" xmlns="http://www.w3.org/2000/svg">
<path d="M48.1357 22.0449C46.9306 18.6198 44.5999 14.6528 41.5728 10.8743C38.5457 7.09603 35.1716 3.94279 32.0723 1.99541C28.7583 -0.0866243 26.0677 -0.557678 24.4953 0.668573L21.7312 2.82478C20.1589 4.05122 20.0027 6.74327 21.2909 10.4055C22.4527 13.7074 24.6608 17.5129 27.5302 21.1675C26.7378 21.1847 25.9547 21.2189 25.1848 21.2703C21.0367 16.2129 16.6012 12.2301 15.7385 11.4695C15.3609 10.3408 14.8333 9.19941 14.1644 8.07336C13.9612 7.73141 13.5153 7.61666 13.1689 7.81707C12.8222 8.01757 12.7059 8.45732 12.9091 8.79937C13.4804 9.761 13.9403 10.7312 14.2794 11.6891L13.3884 12.5861L8.78366 8.13203C8.49675 7.85449 8.03604 7.85898 7.75486 8.14217C7.47368 8.42526 7.47824 8.87976 7.76504 9.1573L12.3699 13.6114L10.7961 15.1954L6.19125 10.7414C5.90434 10.4638 5.44363 10.4683 5.16245 10.7515C4.88127 11.0346 4.88583 11.4891 5.17263 11.7667L9.77744 16.2207L8.88637 17.1176C6.02597 16.1952 3.62493 14.4478 2.08721 13.1135C1.69944 12.777 1.47538 12.3119 1.45637 11.8036C1.43736 11.2966 1.62514 10.8179 1.98537 10.4553L7.39162 5.01333C7.75166 4.6508 8.23109 4.45566 8.74719 4.46476C9.26261 4.47347 9.73835 4.68516 10.0871 5.06109C10.4089 5.40792 10.7236 5.76757 11.0221 6.12991C11.2756 6.43759 11.7339 6.4843 12.0455 6.23403C12.3572 5.98396 12.4046 5.53185 12.151 5.22426C11.8346 4.84011 11.5012 4.45901 11.1604 4.09161C10.5392 3.42197 9.69102 3.04471 8.77202 3.0292C7.85476 3.01465 6.99512 3.36139 6.35255 4.00825L0.946193 9.45025C0.303521 10.0971 -0.0316841 10.9517 0.00236022 11.8567C0.0364045 12.7629 0.435625 13.5922 1.1265 14.1916C2.81378 15.6558 5.48408 17.5875 8.69433 18.5628C9.21896 19.1198 11.2135 21.2024 14.0041 23.6934C11.402 24.8889 9.99199 26.4017 9.99199 28.0437C9.99199 28.4828 10.0932 28.9126 10.2906 29.3297C10.2938 29.3382 10.2963 29.347 10.2997 29.3555L12.151 33.8281C12.8297 35.4678 14.1982 36.7166 15.9053 37.2542C18.1627 37.965 22.2143 38.8123 28.6965 38.8123C33.3418 38.8123 36.7473 38.3812 39.1685 37.8599L45.0849 43.5826C46.0507 44.5169 46.0645 45.8867 45.1178 46.8398C44.6467 47.3139 44.0742 47.5643 43.4615 47.5643C43.4581 47.5643 43.4547 47.5643 43.4512 47.5643C42.8558 47.5615 42.2754 47.3158 41.8168 46.8722L34.2658 39.5685C33.9789 39.291 33.5182 39.2956 33.2371 39.5786C32.9558 39.8617 32.9604 40.3162 33.2473 40.5938L40.7983 47.8975C41.5287 48.604 42.4684 48.9956 43.4445 49C43.4502 49 43.4557 49 43.4613 49C44.4597 49 45.4165 48.5901 46.1569 47.8448C47.6692 46.3226 47.6464 44.0495 46.1036 42.5573L40.8249 37.4513C41.2434 37.3336 41.62 37.2156 41.9552 37.1009C43.3865 36.6108 44.535 35.5381 45.106 34.1579L46.6413 30.448L47.6961 29.6253L47.6976 29.624C49.2678 28.3974 49.4236 25.7058 48.1357 22.0449ZM10.1019 17.9451L15.1418 12.8721C16.4301 14.0311 19.9576 17.3054 23.4262 21.4191C19.7319 21.8724 15.5805 23.0597 15.4988 23.0889C12.9204 20.8223 10.9566 18.8342 10.1019 17.9451ZM11.4466 28.0439C11.4466 26.7628 13.2323 25.3848 16.2236 24.358C19.3965 23.2687 24.1886 22.6883 28.7286 22.6388C29.3867 23.4174 30.0578 24.1651 30.7359 24.8763C30.0591 24.8481 29.3778 24.8328 28.6964 24.8328C24.9352 24.8328 21.267 25.2652 18.3675 26.0501C17.7724 26.2111 17.2104 26.3866 16.6969 26.5719C16.0624 26.8007 15.6527 27.3786 15.6527 28.0441C15.6527 28.7097 16.0626 29.2875 16.6968 29.5163C17.2102 29.7014 17.7723 29.8771 18.3675 30.0382C18.8215 30.1611 19.8987 30.3998 19.95 30.3998C20.2847 30.3998 20.586 30.1705 20.6602 29.8346C20.7457 29.4472 20.4968 29.0647 20.1042 28.9803C19.6365 28.8797 19.1817 28.7699 18.7524 28.6537C18.1957 28.503 17.6722 28.3396 17.1963 28.1679C17.172 28.1592 17.1076 28.1359 17.1076 28.0442C17.1076 27.9526 17.172 27.9293 17.1963 27.9206C17.6723 27.749 18.1958 27.5855 18.7524 27.4348C21.53 26.6829 25.0616 26.2686 28.6964 26.2686C29.8952 26.2686 31.093 26.3156 32.2628 26.4051C33.3957 27.4856 34.5354 28.4544 35.6551 29.287C33.5033 29.6367 31.1311 29.8198 28.6964 29.8198C26.8914 29.8198 25.1129 29.7188 23.4101 29.5193C23.0103 29.4721 22.6492 29.7539 22.6019 30.1476C22.5545 30.5413 22.8396 30.8983 23.2386 30.9451C24.998 31.1512 26.8343 31.2556 28.6963 31.2556C31.7611 31.2556 34.7372 30.9732 37.3292 30.4389C37.3376 30.4442 37.3461 30.4498 37.3545 30.4551C38.443 31.1391 39.4635 31.6477 40.4 31.9809C37.2126 32.9548 33.0877 33.498 28.6964 33.498C18.5309 33.4977 11.4466 30.6235 11.4466 28.0439ZM43.7584 33.6154C43.3452 34.6138 42.5139 35.3899 41.4775 35.7447C39.3029 36.4893 35.3201 37.3769 28.696 37.3769C22.4009 37.3769 18.5061 36.5665 16.3471 35.8867C15.0515 35.4786 14.0128 34.5306 13.4975 33.2855L12.8921 31.8229C13.69 32.2836 14.6435 32.7077 15.7452 33.086C19.2156 34.2774 23.8149 34.9336 28.6962 34.9336C34.2687 34.9336 39.8154 33.919 43.3495 32.4142C43.7223 32.3661 44.0653 32.2674 44.3773 32.1195L43.7584 33.6154ZM44.029 30.6555C43.0107 31.4499 40.8076 30.9222 38.1361 29.2438C35.1705 27.3804 31.9243 24.341 28.9953 20.6855C22.6911 12.8168 20.5828 5.5508 22.6335 3.95111L23.2055 3.50485C23.1224 4.79618 23.4039 6.39855 24.055 8.24926C25.26 11.6744 27.5908 15.6413 30.6179 19.4197C33.645 23.198 37.0191 26.3512 40.1184 28.2986C41.7937 29.3513 43.309 29.9906 44.6018 30.2087L44.029 30.6555ZM46.7932 28.4993C45.775 29.2938 43.5717 28.766 40.9002 27.0876C37.9346 25.2242 34.6884 22.1849 31.7595 18.5293C28.8307 14.8738 26.5827 11.0557 25.4297 7.7784C24.3911 4.82623 24.3791 2.58944 25.3977 1.79491C25.7099 1.55134 26.1334 1.432 26.6476 1.432C27.8108 1.432 29.4383 2.04269 31.2906 3.20654C34.2562 5.06999 37.5024 8.10935 40.4313 11.7648C46.7356 19.6335 48.8439 26.8995 46.7932 28.4993Z" fill="white"/>
</svg>
