<svg width="32" height="32" viewBox="0 0 32 32" fill="none" xmlns="http://www.w3.org/2000/svg">
<path d="M31.2306 14.3966C30.4541 12.1598 28.9522 9.56912 27.0016 7.10155C25.051 4.63412 22.8768 2.57487 20.8797 1.30312C18.7442 -0.0565706 17.0104 -0.364196 15.9972 0.436617L14.216 1.84474C13.2029 2.64568 13.1022 4.40374 13.9323 6.79537C14.681 8.95174 16.1038 11.4369 17.9528 13.8236C17.4422 13.8348 16.9376 13.8572 16.4415 13.8907C13.7685 10.5879 10.9104 7.98693 10.3545 7.49024C10.1112 6.75312 9.77116 6.00774 9.34016 5.27237C9.20922 5.04905 8.92191 4.97412 8.69866 5.10499C8.47529 5.23593 8.40035 5.52312 8.53129 5.74649C8.89941 6.37449 9.19572 7.00812 9.41429 7.63368L8.8401 8.21943L5.87291 5.31068C5.68804 5.12943 5.39116 5.13237 5.20997 5.3173C5.02879 5.50218 5.03172 5.79899 5.21654 5.98024L8.18379 8.88899L7.16966 9.92349L4.20241 7.01474C4.01754 6.83349 3.72066 6.83643 3.53947 7.02137C3.35829 7.20624 3.36122 7.50305 3.54604 7.6843L6.51329 10.5931L5.9391 11.1788C4.09591 10.5764 2.54872 9.43524 1.55785 8.56387C1.30797 8.34412 1.1636 8.04037 1.15135 7.70843C1.1391 7.3773 1.2601 7.06468 1.49222 6.82793L4.97591 3.27399C5.20791 3.03724 5.51685 2.9098 5.84941 2.91574C6.18154 2.92143 6.4881 3.05968 6.71285 3.30518C6.92016 3.53168 7.12297 3.76655 7.31535 4.00318C7.47866 4.20412 7.77397 4.23462 7.97479 4.07118C8.17566 3.90787 8.20616 3.61262 8.04279 3.41174C7.83891 3.16087 7.62404 2.91199 7.40441 2.67205C7.00416 2.23474 6.4576 1.98837 5.86541 1.97824C5.27435 1.96874 4.72041 2.19518 4.30635 2.61762L0.822599 6.17155C0.408474 6.59399 0.192474 7.15212 0.214412 7.74312C0.236349 8.33493 0.493599 8.87649 0.938787 9.26793C2.02604 10.2241 3.74672 11.4856 5.81535 12.1226C6.15341 12.4863 7.43866 13.8464 9.23685 15.4732C7.5601 16.2539 6.65154 17.2418 6.65154 18.3141C6.65154 18.6009 6.71679 18.8816 6.84397 19.154C6.84604 19.1596 6.8476 19.1652 6.84985 19.1708L8.04279 22.0917C8.4801 23.1625 9.36191 23.9781 10.462 24.3291C11.9166 24.7933 14.5273 25.3467 18.7043 25.3467C21.6977 25.3467 23.8922 25.0651 25.4523 24.7247L29.2647 28.4619C29.8871 29.0721 29.896 29.9666 29.2859 30.5891C28.9823 30.8987 28.6135 31.0622 28.2187 31.0622C28.2165 31.0622 28.2143 31.0622 28.212 31.0622C27.8283 31.0604 27.4543 30.8999 27.1588 30.6102L22.2931 25.8405C22.1082 25.6592 21.8113 25.6623 21.6302 25.8471C21.449 26.032 21.4519 26.3288 21.6368 26.5101L26.5025 31.2798C26.9732 31.7412 27.5787 31.9969 28.2077 31.9998C28.2113 31.9998 28.2149 31.9998 28.2185 31.9998C28.8618 31.9998 29.4784 31.7321 29.9555 31.2454C30.93 30.2513 30.9153 28.7669 29.9212 27.7924L26.5197 24.4579C26.7893 24.381 27.032 24.3039 27.248 24.229C28.1703 23.9089 28.9104 23.2084 29.2783 22.3071L30.2677 19.8843L30.9473 19.347C30.9477 19.3467 30.948 19.3464 30.9483 19.3462C31.9601 18.5451 32.0605 16.7874 31.2306 14.3966ZM6.72235 11.7192L9.96997 8.40624C10.8002 9.16312 13.0732 11.3014 15.3083 13.9879C12.9277 14.2839 10.2527 15.0593 10.2 15.0784C8.53854 13.5982 7.2731 12.2998 6.72235 11.7192ZM7.58885 18.3143C7.58885 17.4776 8.73954 16.5777 10.6671 15.9072C12.7116 15.1958 15.7995 14.8167 18.725 14.7844C19.1491 15.2929 19.5815 15.7812 20.0185 16.2457C19.5824 16.2272 19.1434 16.2172 18.7043 16.2172C16.2807 16.2172 13.9169 16.4996 12.0485 17.0122C11.6651 17.1174 11.3029 17.232 10.972 17.353C10.5632 17.5024 10.2992 17.8798 10.2992 18.3144C10.2992 18.7491 10.5633 19.1264 10.972 19.2758C11.3028 19.3967 11.665 19.5114 12.0485 19.6167C12.3411 19.6969 13.0352 19.8528 13.0683 19.8528C13.284 19.8528 13.4781 19.7031 13.5259 19.4837C13.581 19.2307 13.4207 18.9809 13.1677 18.9258C12.8663 18.8601 12.5732 18.7884 12.2966 18.7125C11.9378 18.6141 11.6005 18.5074 11.2938 18.3952C11.2782 18.3896 11.2367 18.3744 11.2367 18.3145C11.2367 18.2546 11.2782 18.2394 11.2938 18.2337C11.6006 18.1217 11.9379 18.0149 12.2966 17.9165C14.0864 17.4254 16.3621 17.1549 18.7043 17.1549C19.4768 17.1549 20.2486 17.1856 21.0024 17.2441C21.7324 17.9497 22.4668 18.5824 23.1883 19.1261C21.8018 19.3545 20.2732 19.4741 18.7043 19.4741C17.5412 19.4741 16.3952 19.4081 15.2979 19.2778C15.0403 19.247 14.8076 19.431 14.7771 19.6881C14.7466 19.9452 14.9303 20.1784 15.1874 20.2089C16.3211 20.3435 17.5044 20.4117 18.7042 20.4117C20.6792 20.4117 22.5968 20.2272 24.2671 19.8784C24.2725 19.8818 24.278 19.8855 24.2834 19.8889C24.9848 20.3356 25.6424 20.6677 26.2458 20.8854C24.192 21.5214 21.534 21.8761 18.7043 21.8761C12.1538 21.8759 7.58885 19.9989 7.58885 18.3143ZM28.41 21.9528C28.1437 22.6048 27.608 23.1116 26.9402 23.3434C25.5389 23.8296 22.9725 24.4092 18.704 24.4092C14.6476 24.4092 12.1378 23.88 10.7467 23.4361C9.91179 23.1696 9.24247 22.5505 8.91041 21.7374L8.52029 20.7822C9.03447 21.0831 9.64885 21.36 10.3588 21.6071C12.595 22.3851 15.5588 22.8136 18.7042 22.8136C22.295 22.8136 25.8692 22.1511 28.1465 21.1683C28.3867 21.1369 28.6077 21.0724 28.8088 20.9759L28.41 21.9528ZM28.5843 20.0198C27.9282 20.5386 26.5085 20.194 24.787 19.0979C22.8761 17.881 20.7843 15.8961 18.8969 13.5088C14.8346 8.37012 13.476 3.62499 14.7975 2.5803L15.1661 2.28887C15.1125 3.13218 15.2939 4.17862 15.7135 5.38724C16.49 7.62405 17.9918 10.2147 19.9425 12.6822C21.8931 15.1496 24.0673 17.2089 26.0644 18.4806C27.144 19.1681 28.1203 19.5856 28.9534 19.728L28.5843 20.0198ZM30.3655 18.6117C29.7094 19.1306 28.2897 18.7859 26.5682 17.6897C24.6572 16.4729 22.5654 14.488 20.6781 12.1007C18.7908 9.71343 17.3423 7.21999 16.5993 5.07974C15.93 3.1518 15.9223 1.69105 16.5787 1.17218C16.7798 1.01312 17.0527 0.935179 17.3841 0.935179C18.1337 0.935179 19.1823 1.33399 20.376 2.09405C22.2869 3.31099 24.3787 5.29587 26.266 7.68312C30.3284 12.8218 31.687 17.5669 30.3655 18.6117Z" fill="black"/>
</svg>
