<svg width="32" height="32" viewBox="0 0 32 32" fill="none" xmlns="http://www.w3.org/2000/svg">
<g clip-path="url(#clip0)">
<path d="M29.7534 1.4248H26.105C25.8459 1.4248 25.6362 1.63452 25.6362 1.89356C25.6362 2.15234 25.8459 2.36231 26.105 2.36231H29.7534C29.8396 2.36231 29.9097 2.43237 29.9097 2.51856V20.8848C29.9097 21.1436 30.1196 21.3535 30.3784 21.3535C30.6375 21.3535 30.8472 21.1436 30.8472 20.8848V2.51856C30.8472 1.91528 30.3567 1.4248 29.7534 1.4248V1.4248Z" fill="black"/>
<path d="M30.3784 22.4575C30.1197 22.4575 29.9097 22.6672 29.9097 22.9262V29.2492C29.9097 30.2146 29.1245 31 28.1592 31C27.1939 31 26.4087 30.2146 26.4087 29.2492V18.8227C26.4087 17.3405 25.2027 16.1347 23.7205 16.1347C22.2383 16.1347 21.0325 17.3405 21.0325 18.8227V21.9934C21.0325 22.9587 20.2471 23.7439 19.282 23.7439C18.3167 23.7439 17.5313 22.9587 17.5313 21.9934V19.6535L19.9173 17.2673C20.2429 16.9418 20.3526 16.4821 20.2495 16.0649L26 10.3144C26.4944 9.82002 26.4944 9.01533 26 8.52094L19.8413 2.36249H24.0635C24.3225 2.36249 24.5323 2.15253 24.5323 1.89374C24.5323 1.63471 24.3225 1.42499 24.0635 1.42499H18.9038L17.7874 0.308289C17.2927 -0.186096 16.4883 -0.186096 15.9939 0.308289L10.2439 6.05805C10.1448 6.03364 10.0425 6.01948 9.93751 6.01948C9.59889 6.01948 9.28028 6.15131 9.04078 6.39081L6.55372 8.87812C6.05933 9.37251 6.05933 10.177 6.55372 10.6713L9.85206 13.9699C8.40382 15.3845 6.70435 16.6706 4.79542 17.7944C4.24024 18.1213 3.71094 18.5349 3.22193 19.0236C2.34009 19.9057 1.69702 20.9314 1.41138 21.9118C1.09766 22.9895 1.24439 23.9028 1.82495 24.4834C2.21216 24.8706 2.74366 25.06 3.35743 25.06C4.25587 25.0598 5.33008 24.6535 6.38306 23.8676C6.59034 23.7126 6.63306 23.4189 6.47828 23.2116C6.32325 23.0041 6.02955 22.9614 5.82227 23.1164C4.48218 24.1164 3.08008 24.4126 2.4878 23.8205C2.16504 23.4975 2.10083 22.8977 2.31153 22.174C2.55372 21.3425 3.11255 20.4592 3.88502 19.6867C4.31788 19.2539 4.78419 18.8889 5.271 18.6025C7.24854 17.4382 9.011 16.1032 10.5149 14.633L11.6753 15.7932C10.2048 17.2973 8.87013 19.0598 7.70582 21.0373C7.56031 21.2844 7.38917 21.5332 7.19679 21.7766C7.03639 21.9797 7.07105 22.2746 7.27418 22.435C7.36012 22.5029 7.46266 22.5358 7.56446 22.5358C7.70289 22.5358 7.8401 22.4748 7.93263 22.3576C8.15138 22.0808 8.34693 21.7966 8.51368 21.5129C9.63771 19.6037 10.9238 17.9043 12.3384 16.456L15.6367 19.7544C15.8762 19.9941 16.1946 20.1259 16.5335 20.1259C16.5537 20.1259 16.5737 20.124 16.5938 20.123V21.9934C16.5938 23.4755 17.7998 24.6814 19.282 24.6814C20.7642 24.6814 21.97 23.4755 21.97 21.9934V18.8227C21.97 17.8576 22.7554 17.0722 23.7207 17.0722C24.6858 17.0722 25.4712 17.8574 25.4712 18.8227V29.2492C25.4712 30.7317 26.677 31.9375 28.1592 31.9375C29.6416 31.9375 30.8474 30.7317 30.8474 29.2492V22.9262C30.8472 22.6672 30.6375 22.4575 30.3784 22.4575V22.4575ZM16.6568 0.971131C16.7857 0.842225 16.9954 0.842225 17.1243 0.971131L25.3369 9.18403C25.4658 9.31269 25.4658 9.52265 25.3369 9.65132L19.7158 15.2724L17.5232 13.0798L18.4729 12.1301C18.656 11.9467 18.656 11.6501 18.4729 11.467C18.2898 11.2841 17.9929 11.2841 17.8101 11.467L16.8601 12.4167L13.5403 9.09687L14.4902 8.14716C14.6734 7.9643 14.6734 7.66743 14.4902 7.48432C14.3071 7.30146 14.0103 7.30122 13.8274 7.48432L12.8775 8.43403L12.3723 7.9289L16.1106 4.19062C16.2937 4.00727 16.2937 3.71064 16.1106 3.52753C15.9275 3.34442 15.6306 3.34442 15.4478 3.52753L11.7092 7.26582L11.0357 6.59223L16.6568 0.971131ZM16.2998 19.0915L7.21656 10.0085C7.08765 9.87959 7.08765 9.66987 7.21656 9.54096L9.70387 7.0539C9.76637 6.9914 9.84938 6.95698 9.93751 6.95698C10.0259 6.95698 10.1089 6.9914 10.1714 7.0539L19.2544 16.1369C19.3833 16.2658 19.3833 16.4755 19.2544 16.6044L16.7674 19.0915C16.7049 19.154 16.6218 19.1884 16.5335 19.1884C16.4451 19.1884 16.3623 19.154 16.2998 19.0915V19.0915Z" fill="black"/>
<path d="M10.486 10.8639C10.3029 10.6808 10.006 10.6808 9.82288 10.8639C9.63977 11.047 9.63977 11.3436 9.82288 11.5267L14.7819 16.4857C14.8734 16.577 14.9933 16.6229 15.1134 16.6229C15.2333 16.6229 15.3532 16.577 15.4447 16.4857C15.6278 16.3024 15.6278 16.0058 15.4447 15.8226L10.486 10.8639Z" fill="black"/>
<path d="M27.7202 11.3301H27.7153C27.4563 11.3301 27.249 11.5398 27.249 11.7988C27.249 12.0579 27.4612 12.2676 27.7202 12.2676C27.9792 12.2676 28.189 12.0579 28.189 11.7988C28.189 11.5398 27.9792 11.3301 27.7202 11.3301Z" fill="black"/>
<path d="M28.106 12.6113C27.847 12.6147 27.6424 12.8271 27.6455 13.0859C27.6487 13.3428 27.8604 13.5488 28.1165 13.5488H28.1226C28.3814 13.5454 28.5887 13.333 28.5855 13.0742C28.5823 12.8174 28.3731 12.6113 28.1167 12.6113C28.1148 12.6113 28.1128 12.6113 28.1109 12.6113H28.106Z" fill="black"/>
<path d="M25.1968 14.0552C24.9378 14.0552 24.7305 14.2649 24.7305 14.5239C24.7305 14.7827 24.9426 14.9927 25.2017 14.9927C25.4607 14.9927 25.6704 14.7827 25.6704 14.5239C25.6704 14.2649 25.4607 14.0552 25.2017 14.0552H25.1968Z" fill="black"/>
</g>
<defs>
<clipPath id="clip0">
<rect width="32" height="32" fill="white"/>
</clipPath>
</defs>
</svg>
