<svg width="47" height="50" viewBox="0 0 47 50" fill="none" xmlns="http://www.w3.org/2000/svg">
<path d="M44.5597 3.18201H38.9731C38.5764 3.18201 38.2553 3.50314 38.2553 3.89978C38.2553 4.29605 38.5764 4.61756 38.9731 4.61756H44.5597C44.6917 4.61756 44.799 4.72485 44.799 4.85681V32.9801C44.799 33.3764 45.1205 33.6979 45.5168 33.6979C45.9134 33.6979 46.2346 33.3764 46.2346 32.9801V4.85681C46.2346 3.93305 45.4835 3.18201 44.5597 3.18201V3.18201Z" fill="white"/>
<path d="M45.5172 35.3881C45.1209 35.3881 44.7994 35.7093 44.7994 36.1059V45.788C44.7994 47.2662 43.5971 48.4688 42.119 48.4688C40.6408 48.4688 39.4385 47.2662 39.4385 45.788V29.8224C39.4385 27.5528 37.5918 25.7064 35.3222 25.7064C33.0526 25.7064 31.2062 27.5528 31.2062 29.8224V34.6775C31.2062 36.1556 30.0035 37.3579 28.5257 37.3579C27.0476 37.3579 25.8449 36.1556 25.8449 34.6775V31.0946L29.4985 27.4407C29.9972 26.9423 30.165 26.2384 30.0073 25.5995L38.8127 16.7941C39.5698 16.037 39.5698 14.8048 38.8127 14.0478L29.3822 4.61769H35.8474C36.2441 4.61769 36.5652 4.29618 36.5652 3.89991C36.5652 3.50327 36.2441 3.18214 35.8474 3.18214H27.9467L26.2371 1.47219C25.4797 0.715162 24.2479 0.715162 23.4909 1.47219L14.6862 10.2765C14.5344 10.2391 14.3777 10.2174 14.217 10.2174C13.6985 10.2174 13.2106 10.4193 12.8439 10.7861L9.03556 14.5947C8.27854 15.3518 8.27854 16.5836 9.03556 17.3406L14.0862 22.3916C11.8685 24.5576 9.26622 26.527 6.34316 28.2478C5.49305 28.7484 4.68256 29.3816 3.93376 30.1301C2.58345 31.4808 1.59875 33.0513 1.16136 34.5526C0.680974 36.2027 0.905652 37.6013 1.79464 38.4903C2.38756 39.0832 3.20141 39.3733 4.14124 39.3733C5.51698 39.3729 7.16187 38.7508 8.77425 37.5474C9.09164 37.3101 9.15706 36.8603 8.92005 36.5429C8.68266 36.2252 8.23293 36.1597 7.91554 36.3971C5.86353 37.9284 3.71656 38.3819 2.80962 37.4753C2.3154 36.9807 2.21708 36.0622 2.53971 34.9541C2.91056 33.6808 3.76628 32.3283 4.94911 31.1454C5.61193 30.4826 6.32597 29.9237 7.07141 29.4852C10.0995 27.7023 12.7983 25.6582 15.1011 23.4069L16.878 25.1834C14.6264 27.4866 12.5826 30.1854 10.7997 33.2135C10.5769 33.5918 10.3148 33.9728 10.0203 34.3455C9.77465 34.6565 9.82773 35.1081 10.1388 35.3537C10.2704 35.4577 10.4274 35.5081 10.5833 35.5081C10.7952 35.5081 11.0053 35.4147 11.147 35.2352C11.482 34.8113 11.7814 34.3762 12.0368 33.9417C13.7579 31.0183 15.7273 28.416 17.8933 26.1984L22.9439 31.249C23.3107 31.6161 23.7982 31.818 24.317 31.818C24.3481 31.818 24.3787 31.815 24.4094 31.8135V34.6775C24.4094 36.9471 26.2562 38.7935 28.5257 38.7935C30.7953 38.7935 32.6417 36.9471 32.6417 34.6775V29.8224C32.6417 28.3446 33.8444 27.142 35.3225 27.142C36.8003 27.142 38.003 28.3442 38.003 29.8224V45.788C38.003 48.058 39.8494 49.9044 42.119 49.9044C44.3889 49.9044 46.2353 48.058 46.2353 45.788V36.1059C46.235 35.7093 45.9138 35.3881 45.5172 35.3881ZM24.5058 2.48717C24.7032 2.28978 25.0244 2.28978 25.2217 2.48717L37.7974 15.0632C37.9948 15.2602 37.9948 15.5817 37.7974 15.7787L29.1901 24.386L25.8326 21.0285L27.2868 19.5743C27.5672 19.2935 27.5672 18.8393 27.2868 18.559C27.0065 18.2789 26.5519 18.2789 26.2719 18.559L24.8172 20.0132L19.7338 14.9297L21.1884 13.4755C21.4688 13.1955 21.4688 12.7409 21.1884 12.4605C20.908 12.1805 20.4534 12.1801 20.1734 12.4605L18.7188 13.9147L17.9453 13.1413L23.6696 7.417C23.9499 7.13625 23.9499 6.68203 23.6696 6.40165C23.3892 6.12127 22.9346 6.12127 22.6546 6.40165L16.93 12.1259L15.8985 11.0945L24.5058 2.48717ZM23.9593 30.234L10.0505 16.3256C9.85315 16.1282 9.85315 15.8071 10.0505 15.6097L13.8592 11.8014C13.9549 11.7057 14.082 11.653 14.217 11.653C14.3523 11.653 14.4794 11.7057 14.5751 11.8014L28.4835 25.7098C28.6809 25.9072 28.6809 26.2283 28.4835 26.4257L24.6752 30.234C24.5795 30.3297 24.4524 30.3824 24.317 30.3824C24.1817 30.3824 24.055 30.3297 23.9593 30.234Z" fill="white"/>
<path d="M15.0565 17.6352C14.7761 17.3548 14.3215 17.3548 14.0411 17.6352C13.7607 17.9156 13.7607 18.3698 14.0411 18.6502L21.6346 26.2437C21.7748 26.3835 21.9583 26.4538 22.1423 26.4538C22.3258 26.4538 22.5094 26.3835 22.6496 26.2437C22.9299 25.9629 22.9299 25.5087 22.6496 25.2283L15.0565 17.6352Z" fill="white"/>
<path d="M41.4465 18.3491H41.4391C41.0424 18.3491 40.725 18.6703 40.725 19.0669C40.725 19.4635 41.0499 19.7847 41.4465 19.7847C41.8432 19.7847 42.1643 19.4635 42.1643 19.0669C42.1643 18.6703 41.8432 18.3491 41.4465 18.3491Z" fill="white"/>
<path d="M42.0375 20.311C41.6408 20.3163 41.3275 20.6415 41.3324 21.0378C41.3373 21.4311 41.6614 21.7466 42.0535 21.7466H42.0629C42.4591 21.7414 42.7765 21.4161 42.7717 21.0198C42.7668 20.6266 42.4464 20.311 42.0539 20.311C42.0509 20.311 42.0479 20.311 42.0449 20.311H42.0375Z" fill="white"/>
<path d="M37.5824 22.522C37.1857 22.522 36.8683 22.8431 36.8683 23.2397C36.8683 23.636 37.1932 23.9575 37.5899 23.9575C37.9865 23.9575 38.3076 23.636 38.3076 23.2397C38.3076 22.8431 37.9865 22.522 37.5899 22.522H37.5824Z" fill="white"/>
</svg>
