<svg width="38" height="46" viewBox="0 0 38 46" fill="none" xmlns="http://www.w3.org/2000/svg">
<path d="M27.1629 45.8379H8.94885C8.78796 45.8379 8.63283 45.778 8.51361 45.6699C3.4548 41.0859 0.185608 34.2965 0.185608 28.3724C0.185608 18.3605 7.99404 10.8109 18.3478 10.8109C28.7015 10.8109 36.5099 18.3605 36.5099 28.3724C36.5099 35.1793 31.7099 41.9461 27.5982 45.6699C27.4789 45.778 27.3238 45.8379 27.1629 45.8379ZM9.20182 44.5406H26.9099C30.783 40.9614 35.2126 34.6552 35.2126 28.3724C35.2126 19.1006 27.962 12.1082 18.3478 12.1082C8.7335 12.1082 1.48291 19.1006 1.48291 28.3724C1.48291 33.8756 4.50561 40.1947 9.20182 44.5406Z" fill="white"/>
<path d="M23.5426 11.9006H22.2453V2.37844C22.2453 2.20641 22.1769 2.04142 22.0553 1.91978C21.9337 1.79813 21.7687 1.72979 21.5966 1.72979H15.1101C14.9381 1.72979 14.7731 1.79813 14.6514 1.91978C14.5298 2.04142 14.4614 2.20641 14.4614 2.37844V5.62168H13.1641V2.37844C13.1641 1.86234 13.3691 1.36739 13.7341 1.00245C14.099 0.637514 14.594 0.432495 15.1101 0.432495H21.5966C22.1127 0.432495 22.6077 0.637514 22.9726 1.00245C23.3376 1.36739 23.5426 1.86234 23.5426 2.37844V11.9006Z" fill="white"/>
<path d="M13.1641 8.21643H14.4613V11.9007H13.1641V8.21643Z" fill="white"/>
<path d="M17.705 3.67566H19.0022V4.97296H17.705V3.67566Z" fill="white"/>
<path d="M26.4824 4.39832L34.2624 0.508399L34.8423 1.66818L27.0623 5.5581L26.4824 4.39832Z" fill="#FE5943"/>
<path d="M26.488 8.16162L27.0679 7.00184L34.8479 10.8918L34.268 12.0515L26.488 8.16162Z" fill="#FE5943"/>
<path d="M29.3771 5.62195H37.1608V6.91925H29.3771V5.62195Z" fill="#FE5943"/>
<path d="M25.8686 42.5947H10.2556C10.1695 42.5946 10.0842 42.5773 10.0048 42.5439C9.92538 42.5105 9.85343 42.4616 9.79312 42.4001C5.92912 38.4692 3.43182 32.9616 3.43182 28.3698C3.43149 27.3753 3.52926 26.3833 3.72372 25.4081C3.74386 25.3073 3.78764 25.2128 3.85147 25.1322C3.9153 25.0517 3.99735 24.9875 4.09085 24.9449C7.03831 23.6035 12.8567 21.9358 18.7107 25.8388C20.2 26.8522 21.8877 27.5376 23.6619 27.8496L23.4439 29.1287C21.4903 28.788 19.6314 28.0363 17.9901 26.9233C12.8547 23.4997 7.72004 24.7977 4.9341 25.9957C4.79789 26.7798 4.72932 27.574 4.72912 28.3698C4.72912 32.5652 6.99939 37.6117 10.53 41.2974H25.5974C28.5812 38.2383 31.9724 33.0997 31.9724 28.3698C31.9724 28.2757 31.9724 28.1817 31.9724 28.0883C30.124 28.855 28.1505 29.2758 26.1501 29.3298L26.1254 28.0325C28.2618 27.9683 30.3609 27.4572 32.2876 26.5322C32.3818 26.4875 32.4853 26.4662 32.5895 26.47C32.6936 26.4739 32.7953 26.5028 32.886 26.5543C32.9766 26.6058 33.0535 26.6783 33.1101 26.7658C33.1667 26.8533 33.2014 26.9532 33.2113 27.0569C33.2521 27.4824 33.2723 27.9242 33.2723 28.3698C33.2723 33.5895 29.6865 39.0427 26.3317 42.4046C26.271 42.4654 26.1987 42.5135 26.1192 42.5461C26.0397 42.5787 25.9545 42.5952 25.8686 42.5947Z" fill="#FE5943"/>
</svg>
