<svg width="37" height="46" viewBox="0 0 37 46" fill="none" xmlns="http://www.w3.org/2000/svg">
<path d="M26.9773 45.4054H8.76324C8.60235 45.4054 8.44722 45.3455 8.328 45.2374C3.26919 40.6534 0 33.864 0 27.9399C0 17.928 7.80843 10.3784 18.1622 10.3784C28.5159 10.3784 36.3243 17.928 36.3243 27.9399C36.3243 34.7469 31.5243 41.5136 27.4125 45.2374C27.2933 45.3455 27.1382 45.4054 26.9773 45.4054V45.4054ZM9.01622 44.1082H26.7243C30.5974 40.5289 35.027 34.2227 35.027 27.9399C35.027 18.6681 27.7764 11.6757 18.1622 11.6757C8.54789 11.6757 1.2973 18.6681 1.2973 27.9399C1.2973 33.4431 4.32 39.7622 9.01622 44.1082V44.1082Z" fill="#052356"/>
<path d="M23.357 11.4681H22.0597V1.94595C22.0597 1.77391 21.9913 1.60893 21.8697 1.48728C21.748 1.36564 21.5831 1.2973 21.411 1.2973H14.9245C14.7524 1.2973 14.5875 1.36564 14.4658 1.48728C14.3442 1.60893 14.2758 1.77391 14.2758 1.94595V5.18919H12.9785V1.94595C12.9785 1.42985 13.1835 0.93489 13.5485 0.569954C13.9134 0.205019 14.4084 0 14.9245 0H21.411C21.9271 0 22.4221 0.205019 22.787 0.569954C23.152 0.93489 23.357 1.42985 23.357 1.94595V11.4681Z" fill="#052356"/>
<path d="M12.9785 7.78394H14.2757V11.4683H12.9785V7.78394Z" fill="#052356"/>
<path d="M17.5193 3.24316H18.8166V4.54046H17.5193V3.24316Z" fill="#052356"/>
<path d="M26.2968 3.96582L34.0767 0.0759041L34.6567 1.23569L26.8767 5.1256L26.2968 3.96582Z" fill="#FE5943"/>
<path d="M26.3024 7.72913L26.8823 6.56934L34.6623 10.4593L34.0824 11.619L26.3024 7.72913Z" fill="#FE5943"/>
<path d="M29.1915 5.18945H36.9752V6.48675H29.1915V5.18945Z" fill="#FE5943"/>
<path d="M25.683 42.1622H10.07C9.98385 42.1621 9.89859 42.1448 9.81918 42.1114C9.73977 42.078 9.66782 42.0291 9.60751 41.9676C5.74351 38.0368 3.24622 32.5291 3.24622 27.9373C3.24588 26.9429 3.34365 25.9508 3.53811 24.9756C3.55825 24.8748 3.60204 24.7803 3.66587 24.6998C3.7297 24.6192 3.81174 24.555 3.90524 24.5124C6.8527 23.171 12.6711 21.5033 18.5251 25.4063C20.0144 26.4197 21.7021 27.1051 23.4763 27.4171L23.2583 28.6962C21.3047 28.3555 19.4458 27.6038 17.8045 26.4908C12.6691 23.0672 7.53443 24.3652 4.74849 25.5632C4.61228 26.3473 4.54371 27.1415 4.54351 27.9373C4.54351 32.1328 6.81378 37.1792 10.3444 40.8649H25.4118C28.3956 37.8058 31.7868 32.6672 31.7868 27.9373C31.7868 27.8432 31.7868 27.7492 31.7868 27.6558C29.9384 28.4225 27.9649 28.8433 25.9645 28.8973L25.9398 27.6C28.0761 27.5358 30.1753 27.0247 32.102 26.0997C32.1962 26.055 32.2997 26.0337 32.4039 26.0376C32.508 26.0414 32.6097 26.0703 32.7003 26.1218C32.791 26.1733 32.8678 26.2458 32.9245 26.3333C32.9811 26.4208 33.0158 26.5207 33.0257 26.6244C33.0665 27.0499 33.0867 27.4917 33.0867 27.9373C33.0867 33.157 29.5009 38.6102 26.1461 41.9721C26.0854 42.0329 26.0131 42.081 25.9336 42.1136C25.8541 42.1462 25.7689 42.1627 25.683 42.1622Z" fill="#FE5943"/>
</svg>
