<svg width="49" height="49" viewBox="0 0 49 49" fill="none" xmlns="http://www.w3.org/2000/svg">
<path d="M17.69 30.9599H19.2762C19.3448 31.7031 19.5184 32.4079 19.7788 33.0522C18.7845 33.546 18.1072 34.5788 18.1072 35.7322C18.1072 36.1287 18.4286 36.45 18.825 36.45C19.2214 36.45 19.5428 36.1287 19.5428 35.7322C19.5428 35.1163 19.914 34.5666 20.4536 34.3191C21.4187 35.7328 22.8742 36.6347 24.4998 36.6347C26.1254 36.6347 27.5809 35.7327 28.5461 34.319C29.0857 34.5665 29.4569 35.1163 29.4569 35.7322C29.4569 36.1287 29.7783 36.45 30.1747 36.45C30.5711 36.45 30.8925 36.1287 30.8925 35.7322C30.8925 34.5789 30.2152 33.546 29.2208 33.0522C29.4814 32.4079 29.6548 31.703 29.7234 30.9598H31.3096C31.706 30.9598 32.0273 30.6386 32.0273 30.2421C32.0273 29.8456 31.706 29.5243 31.3096 29.5243H29.7234C29.6549 28.7828 29.4821 28.0792 29.2226 27.4361C30.2259 26.9476 30.8924 25.9248 30.8924 24.7521C30.8924 24.3556 30.571 24.0343 30.1746 24.0343C29.7782 24.0343 29.4569 24.3556 29.4569 24.7521C29.4569 25.3782 29.0918 25.9219 28.5472 26.1667C27.582 24.7522 26.1261 23.8495 24.4998 23.8495C22.8742 23.8495 21.4187 24.7515 20.4536 26.1651C19.914 25.9177 19.5428 25.3679 19.5428 24.7521C19.5428 24.3556 19.2214 24.0343 18.825 24.0343C18.4286 24.0343 18.1072 24.3556 18.1072 24.7521C18.1072 25.9053 18.7845 26.9382 19.7788 27.4319C19.5183 28.0762 19.3448 28.7812 19.2761 29.5243H17.6899C17.2935 29.5243 16.9722 29.8456 16.9722 30.2421C16.9722 30.6386 17.2936 30.9599 17.69 30.9599V30.9599ZM24.4999 25.2851C26.6074 25.2851 28.322 27.5088 28.322 30.2422C28.322 32.9755 26.6074 35.1992 24.4999 35.1992C22.3924 35.1992 20.6778 32.9755 20.6778 30.2422C20.6778 27.5088 22.3924 25.2851 24.4999 25.2851Z" fill="#FE5943"/>
<path d="M41.1763 3.82812C36.9161 3.82812 33.4429 7.25123 33.3567 11.4911C33.276 11.4868 33.1949 11.4844 33.1133 11.4844H30.96V10.2881C30.96 8.83694 29.7794 7.65625 28.3281 7.65625H27.1318V5.26367H30.2422C31.6934 5.26367 32.874 4.08298 32.874 2.63184C32.874 1.18069 31.6934 0 30.2422 0H18.7578C17.3066 0 16.126 1.18069 16.126 2.63184C16.126 4.08298 17.3066 5.26367 18.7578 5.26367H21.8682V7.65625H20.6719C19.2206 7.65625 18.04 8.83694 18.04 10.2881V11.4844H15.8867C13.3802 11.4844 11.3408 13.5237 11.3408 16.0303V40.8652H10.2163C8.27698 40.8652 6.69922 39.2875 6.69922 37.3481V34.7767C8.03868 34.6553 9.0918 33.5267 9.0918 32.1562V22.5859C9.0918 21.3836 8.281 20.3677 7.17773 20.0544V7.53308C7.17773 6.076 7.74516 4.7063 8.7754 3.67596C9.18214 3.26922 9.40609 2.7285 9.40609 2.15332C9.40609 1.57805 9.18204 1.03742 8.7754 0.630779C8.36876 0.224041 7.82794 0 7.25277 0C6.67759 0 6.13687 0.224041 5.73013 0.630684C3.26931 3.0915 1.91406 6.3634 1.91406 9.84355V20.0544C0.810797 20.3677 0 21.3836 0 22.5859V32.1562C0 33.5267 1.05312 34.6553 2.39258 34.7767V37.3481C2.39258 41.6622 5.9023 45.1719 10.2163 45.1719H11.3981C11.7433 47.3386 13.6244 49 15.8867 49H33.1133C35.3756 49 37.2567 47.3386 37.6019 45.1719H41.1763C45.4903 45.1719 49 41.6622 49 37.3481V11.6519C49 7.33785 45.4903 3.82812 41.1763 3.82812ZM17.5615 2.63184C17.5615 1.97215 18.0981 1.43555 18.7578 1.43555H30.2422C30.9019 1.43555 31.4385 1.97215 31.4385 2.63184C31.4385 3.29152 30.9019 3.82812 30.2422 3.82812H18.7578C18.0981 3.82812 17.5615 3.29152 17.5615 2.63184ZM23.3037 5.26367H25.6963V7.65625H23.3037V5.26367ZM19.4756 10.2881C19.4756 9.6284 20.0122 9.0918 20.6719 9.0918H28.3281C28.9878 9.0918 29.5244 9.6284 29.5244 10.2881V11.4844H19.4756V10.2881ZM15.8867 12.9199H33.1133C34.8283 12.9199 36.2236 14.3152 36.2236 16.0303V17.083H18.0054C17.609 17.083 17.2876 17.4043 17.2876 17.8008C17.2876 18.1973 17.609 18.5186 18.0054 18.5186H36.2236V41.9658H12.7764V18.5186H15.1343C15.5307 18.5186 15.8521 18.1973 15.8521 17.8008C15.8521 17.4043 15.5307 17.083 15.1343 17.083H12.7764V16.0303C12.7764 14.3152 14.1717 12.9199 15.8867 12.9199ZM6.74525 1.64571C6.88086 1.5102 7.06107 1.43555 7.25286 1.43555C7.44456 1.43555 7.62476 1.5102 7.76037 1.64581C7.89599 1.78132 7.97054 1.96153 7.97054 2.15332C7.97054 2.34501 7.89589 2.52532 7.76028 2.66093C6.45891 3.9623 5.74219 5.69261 5.74219 7.53308V19.9541H3.34961V9.84355C3.34961 6.74678 4.55556 3.83549 6.74525 1.64571ZM1.43555 32.1562V22.5859C1.43555 21.9263 1.97215 21.3896 2.63184 21.3896H6.45996C7.11964 21.3896 7.65625 21.9263 7.65625 22.5859V32.1562C7.65625 32.8159 7.11964 33.3525 6.45996 33.3525H2.63184C1.97215 33.3525 1.43555 32.8159 1.43555 32.1562V32.1562ZM3.82812 37.3481V34.7881H5.26367V37.3481C5.26367 40.079 7.48542 42.3008 10.2163 42.3008H11.3408V43.7363H10.2163C6.69386 43.7363 3.82812 40.8706 3.82812 37.3481V37.3481ZM33.1133 47.5645H15.8867C14.1717 47.5645 12.7764 46.1692 12.7764 44.4541V43.4014H36.2236V44.4541C36.2236 46.1692 34.8283 47.5645 33.1133 47.5645ZM47.5645 37.3481C47.5645 40.8706 44.6987 43.7363 41.1763 43.7363H37.6592V42.3008H41.1763C43.9072 42.3008 46.1289 40.079 46.1289 37.3481V31.6777C46.1289 31.2812 45.8075 30.96 45.4111 30.96C45.0147 30.96 44.6934 31.2812 44.6934 31.6777V37.3481C44.6934 39.2875 43.1156 40.8652 41.1763 40.8652H37.6592V11.6519C37.6592 9.71253 39.2369 8.13477 41.1763 8.13477C43.1156 8.13477 44.6934 9.71253 44.6934 11.6519V28.8066C44.6934 29.2031 45.0147 29.5244 45.4111 29.5244C45.8075 29.5244 46.1289 29.2031 46.1289 28.8066V11.6519C46.1289 8.92097 43.9072 6.69922 41.1763 6.69922C38.4454 6.69922 36.2236 8.92097 36.2236 11.6519V12.7195C35.81 12.3307 35.3241 12.0187 34.7881 11.8055V11.6519C34.7881 8.12941 37.6538 5.26367 41.1763 5.26367C44.6987 5.26367 47.5645 8.12941 47.5645 11.6519V37.3481Z" fill="white"/>
</svg>
