<svg width="48" height="48" viewBox="0 0 48 48" fill="none" xmlns="http://www.w3.org/2000/svg">
<path d="M17.3292 30.3281H18.883C18.9502 31.0561 19.1202 31.7466 19.3753 32.3777C18.4013 32.8614 17.7379 33.8731 17.7379 35.003C17.7379 35.3914 18.0527 35.7061 18.441 35.7061C18.8293 35.7061 19.1441 35.3914 19.1441 35.003C19.1441 34.3997 19.5078 33.8612 20.0363 33.6188C20.9818 35.0035 22.4075 35.887 24 35.887C25.5924 35.887 27.0182 35.0034 27.9637 33.6187C28.4923 33.8611 28.856 34.3997 28.856 35.003C28.856 35.3914 29.1708 35.7061 29.5591 35.7061C29.9474 35.7061 30.2622 35.3914 30.2622 35.003C30.2622 33.8732 29.5987 32.8614 28.6247 32.3777C28.8799 31.7466 29.0497 31.056 29.117 30.328H30.6708C31.0591 30.328 31.3739 30.0133 31.3739 29.6249C31.3739 29.2365 31.0591 28.9218 30.6708 28.9218H29.117C29.0498 28.1954 28.8806 27.5062 28.6264 26.8762C29.6092 26.3977 30.2621 25.3958 30.2621 24.2469C30.2621 23.8585 29.9473 23.5438 29.559 23.5438C29.1707 23.5438 28.8559 23.8585 28.8559 24.2469C28.8559 24.8603 28.4983 25.3929 27.9648 25.6328C27.0193 24.247 25.5931 23.3628 24 23.3628C22.4075 23.3628 20.9818 24.2464 20.0363 25.6312C19.5078 25.3888 19.1441 24.8502 19.1441 24.2469C19.1441 23.8585 18.8293 23.5438 18.441 23.5438C18.0527 23.5438 17.7379 23.8585 17.7379 24.2469C17.7379 25.3766 18.4013 26.3885 19.3753 26.8721C19.1201 27.5033 18.9502 28.1938 18.8829 28.9218H17.3291C16.9408 28.9218 16.626 29.2365 16.626 29.6249C16.626 30.0133 16.9409 30.3281 17.3292 30.3281V30.3281ZM24.0001 24.7691C26.0646 24.7691 27.7442 26.9474 27.7442 29.625C27.7442 32.3026 26.0646 34.4809 24.0001 34.4809C21.9356 34.4809 20.256 32.3026 20.256 29.625C20.256 26.9474 21.9356 24.7691 24.0001 24.7691Z" fill="#FE5943"/>
<path d="M40.3359 3.75C36.1628 3.75 32.7604 7.10325 32.6759 11.2566C32.5969 11.2523 32.5175 11.25 32.4375 11.25H30.3281V10.0781C30.3281 8.65659 29.1716 7.5 27.75 7.5H26.5781V5.15625H29.625C31.0466 5.15625 32.2031 3.99966 32.2031 2.57812C32.2031 1.15659 31.0466 0 29.625 0H18.375C16.9534 0 15.7969 1.15659 15.7969 2.57812C15.7969 3.99966 16.9534 5.15625 18.375 5.15625H21.4219V7.5H20.25C18.8284 7.5 17.6719 8.65659 17.6719 10.0781V11.25H15.5625C13.1071 11.25 11.1094 13.2477 11.1094 15.7031V40.0312H10.0078C8.10806 40.0312 6.5625 38.4857 6.5625 36.5859V34.067C7.87463 33.9481 8.90625 32.8425 8.90625 31.5V22.125C8.90625 20.9472 8.112 19.9521 7.03125 19.6451V7.37934C7.03125 5.952 7.58709 4.61025 8.59631 3.60094C8.99475 3.2025 9.21412 2.67281 9.21412 2.10938C9.21412 1.54584 8.99466 1.01625 8.59631 0.617906C8.19797 0.219469 7.66819 0 7.10475 0C6.54131 0 6.01163 0.219469 5.61319 0.617813C3.20259 3.02841 1.875 6.23353 1.875 9.64266V19.6451C0.79425 19.9521 0 20.9472 0 22.125V31.5C0 32.8425 1.03162 33.9481 2.34375 34.067V36.5859C2.34375 40.8119 5.78184 44.25 10.0078 44.25H11.1654C11.5036 46.3725 13.3463 48 15.5625 48H32.4375C34.6537 48 36.4964 46.3725 36.8346 44.25H40.3359C44.5619 44.25 48 40.8119 48 36.5859V11.4141C48 7.18809 44.5619 3.75 40.3359 3.75ZM17.2031 2.57812C17.2031 1.93191 17.7288 1.40625 18.375 1.40625H29.625C30.2712 1.40625 30.7969 1.93191 30.7969 2.57812C30.7969 3.22434 30.2712 3.75 29.625 3.75H18.375C17.7288 3.75 17.2031 3.22434 17.2031 2.57812ZM22.8281 5.15625H25.1719V7.5H22.8281V5.15625ZM19.0781 10.0781C19.0781 9.43191 19.6038 8.90625 20.25 8.90625H27.75C28.3962 8.90625 28.9219 9.43191 28.9219 10.0781V11.25H19.0781V10.0781ZM15.5625 12.6562H32.4375C34.1175 12.6562 35.4844 14.023 35.4844 15.7031V16.7344H17.6379C17.2496 16.7344 16.9348 17.0491 16.9348 17.4375C16.9348 17.8259 17.2496 18.1406 17.6379 18.1406H35.4844V41.1094H12.5156V18.1406H14.8254C15.2138 18.1406 15.5286 17.8259 15.5286 17.4375C15.5286 17.0491 15.2138 16.7344 14.8254 16.7344H12.5156V15.7031C12.5156 14.023 13.8825 12.6562 15.5625 12.6562ZM6.60759 1.61212C6.74044 1.47937 6.91697 1.40625 7.10484 1.40625C7.29263 1.40625 7.46916 1.47938 7.602 1.61222C7.73484 1.74497 7.80787 1.9215 7.80787 2.10938C7.80787 2.29716 7.73475 2.47378 7.60191 2.60663C6.32709 3.88144 5.625 5.57644 5.625 7.37934V19.5469H3.28125V9.64266C3.28125 6.60909 4.46259 3.75722 6.60759 1.61212ZM1.40625 31.5V22.125C1.40625 21.4788 1.93191 20.9531 2.57812 20.9531H6.32812C6.97434 20.9531 7.5 21.4788 7.5 22.125V31.5C7.5 32.1462 6.97434 32.6719 6.32812 32.6719H2.57812C1.93191 32.6719 1.40625 32.1462 1.40625 31.5V31.5ZM3.75 36.5859V34.0781H5.15625V36.5859C5.15625 39.2611 7.33266 41.4375 10.0078 41.4375H11.1094V42.8438H10.0078C6.55725 42.8438 3.75 40.0365 3.75 36.5859V36.5859ZM32.4375 46.5938H15.5625C13.8825 46.5938 12.5156 45.227 12.5156 43.5469V42.5156H35.4844V43.5469C35.4844 45.227 34.1175 46.5938 32.4375 46.5938ZM46.5938 36.5859C46.5938 40.0365 43.7865 42.8438 40.3359 42.8438H36.8906V41.4375H40.3359C43.0111 41.4375 45.1875 39.2611 45.1875 36.5859V31.0312C45.1875 30.6428 44.8727 30.3281 44.4844 30.3281C44.0961 30.3281 43.7812 30.6428 43.7812 31.0312V36.5859C43.7812 38.4857 42.2357 40.0312 40.3359 40.0312H36.8906V11.4141C36.8906 9.51431 38.4362 7.96875 40.3359 7.96875C42.2357 7.96875 43.7812 9.51431 43.7812 11.4141V28.2188C43.7812 28.6072 44.0961 28.9219 44.4844 28.9219C44.8727 28.9219 45.1875 28.6072 45.1875 28.2188V11.4141C45.1875 8.73891 43.0111 6.5625 40.3359 6.5625C37.6608 6.5625 35.4844 8.73891 35.4844 11.4141V12.4599C35.0792 12.079 34.6032 11.7734 34.0781 11.5645V11.4141C34.0781 7.9635 36.8854 5.15625 40.3359 5.15625C43.7865 5.15625 46.5938 7.9635 46.5938 11.4141V36.5859Z" fill="#052356"/>
</svg>
