<svg width="49" height="47" viewBox="0 0 49 47" fill="none" xmlns="http://www.w3.org/2000/svg">
<path d="M46.9791 39.4987H46.2978C46.3047 39.4026 46.3047 39.3061 46.2978 39.21V2.83371C46.2978 1.71759 45.393 0.812806 44.2769 0.812806H24.5298C23.4136 0.812806 22.5089 1.71759 22.5089 2.83371V17.8461C20.6287 18.3023 18.9834 19.4375 17.8896 21.0334C16.5483 22.9658 16.1338 25.3939 16.7579 27.662C17.5894 30.8492 17.6933 35.0758 15.9727 36.8311C14.982 37.7092 13.5884 37.971 12.3466 37.5124C11.0108 37.301 9.87026 36.4336 9.30946 35.2028C7.47332 30.9647 12.0579 22.9504 12.0694 22.9157C12.3466 22.5 18.7326 12.5802 12.208 6.74849C11.9424 6.47134 5.64873 -0.180324 0.787015 0.466365C0.29276 0.530168 -0.0562791 0.982562 0.0075237 1.47682C0.0713265 1.97107 0.52372 2.32011 1.01798 2.25631C2.18635 2.18615 3.35097 2.44627 4.37845 3.00693L3.08507 4.56591C2.38411 5.43447 2.52008 6.70677 3.38864 7.40774C3.40279 7.41914 3.41708 7.4304 3.43151 7.44137L7.77357 10.9058C8.13055 11.1919 8.57486 11.3468 9.03231 11.3446H9.20553C9.73789 11.2846 10.2244 11.0143 10.5566 10.594L11.8154 9.0119C15.7186 14.0007 10.6606 21.9457 10.5335 22.0727C10.3257 22.4307 5.47551 30.9185 7.64654 35.9304C8.44913 37.6706 10.0628 38.8993 11.954 39.21C12.5364 39.3512 13.1332 39.4248 13.7324 39.4294C15.0272 39.4684 16.2807 38.9711 17.1968 38.0552C19.5064 35.6416 19.3216 30.7222 18.4208 27.2347C17.4628 24.0243 19.2797 20.6434 22.4858 19.6707V39.21C22.4788 39.3061 22.4788 39.4026 22.4858 39.4987H21.9084C20.7925 39.4731 19.8672 40.357 19.8418 41.4728C19.8414 41.4884 19.8413 41.504 19.8413 41.5196V44.5567C19.841 45.6728 20.7455 46.5779 21.8616 46.5782C21.8772 46.5782 21.8928 46.5781 21.9084 46.5776H46.9791C48.0952 46.5776 49 45.6728 49 44.5567V41.5196C49 40.4036 48.0952 39.4987 46.9791 39.4987ZM10.4874 7.93794L9.20553 9.52002C9.15659 9.57949 9.08586 9.61688 9.00921 9.62395C8.93501 9.63362 8.85995 9.61269 8.80134 9.56621L4.45929 6.1018C4.34929 5.9895 4.34929 5.80993 4.45929 5.69762L5.74112 4.10399C5.79005 4.04452 5.86078 4.00713 5.93743 4.00006C6.01163 3.99039 6.08669 4.01132 6.1453 4.0578L10.4874 7.52221C10.5478 7.57028 10.5855 7.64144 10.5913 7.71853C10.5906 7.8034 10.5526 7.88366 10.4874 7.93794ZM24.218 2.83371C24.218 2.6742 24.3472 2.54501 24.5067 2.54501H44.3C44.4595 2.54501 44.5887 2.6742 44.5887 2.83371V39.21C44.5887 39.3695 44.4595 39.4987 44.3 39.4987H24.5298C24.3708 39.5114 24.2317 39.3929 24.2188 39.234C24.2182 39.226 24.2178 39.2179 24.218 39.21V2.83371ZM47.314 44.5567C47.314 44.7162 47.1848 44.8454 47.0253 44.8454H21.9084C21.7488 44.8454 21.6197 44.7162 21.6197 44.5567V41.5196C21.6197 41.3601 21.7488 41.2309 21.9084 41.2309H46.9791C47.1365 41.2053 47.2848 41.3123 47.3103 41.4696C47.313 41.4861 47.3141 41.5029 47.314 41.5196V44.5567Z" fill="white"/>
<path d="M40.3852 5.29321H28.4215C27.3054 5.29321 26.4006 6.198 26.4006 7.31412V19.2894C26.4006 20.4055 27.3054 21.3103 28.4215 21.3103H40.3852C41.5014 21.3103 42.4061 20.4055 42.4061 19.2894V7.31412C42.4061 6.19815 41.5014 5.29321 40.3852 5.29321ZM40.6739 19.301C40.6677 19.4559 40.5403 19.5783 40.3852 19.5781H28.4215C28.262 19.5781 28.1328 19.4489 28.1328 19.2894V7.31412C28.1328 7.15461 28.262 7.02542 28.4215 7.02542H40.3852C40.5448 7.02542 40.6739 7.15461 40.6739 7.31412V19.301Z" fill="#FE5943"/>
<path d="M39.0338 24.5781H29.7954C29.317 24.5781 28.9293 24.9659 28.9293 25.4442C28.9293 25.9226 29.317 26.3103 29.7954 26.3103H39.0338C39.5121 26.3103 39.8999 25.9226 39.8999 25.4442C39.8999 24.9659 39.5121 24.5781 39.0338 24.5781Z" fill="#FE5943"/>
</svg>
