<svg width="48" height="46" viewBox="0 0 48 46" fill="none" xmlns="http://www.w3.org/2000/svg">
<path d="M46.0204 38.6722H45.3529C45.3597 38.578 45.3597 38.4835 45.3529 38.3893V2.75544C45.3529 1.6621 44.4666 0.77578 43.3733 0.77578H24.0291C22.9358 0.77578 22.0495 1.6621 22.0495 2.75544V17.4615C20.2077 17.9083 18.596 19.0203 17.5245 20.5837C16.2106 22.4767 15.8045 24.8553 16.4159 27.077C17.2304 30.1992 17.3322 34.3395 15.6467 36.059C14.6762 36.9192 13.3111 37.1757 12.0946 36.7264C10.7861 36.5193 9.66882 35.6696 9.11947 34.464C7.3208 30.3123 11.8118 22.4616 11.8231 22.4276C12.0946 22.0204 18.3503 12.3031 11.9589 6.59033C11.6987 6.31883 5.53345 -0.197082 0.770954 0.436409C0.286785 0.49891 -0.0551306 0.942072 0.00737015 1.42624C0.0698709 1.91041 0.513032 2.25232 0.997201 2.18982C2.14173 2.1211 3.28258 2.37591 4.28909 2.92513L3.02211 4.45229C2.33545 5.30312 2.46865 6.54946 3.31948 7.23612C3.33334 7.24729 3.34734 7.25832 3.36148 7.26907L7.61493 10.6628C7.96462 10.943 8.39986 11.0948 8.84797 11.0926H9.01766C9.53916 11.0338 10.0157 10.7691 10.3412 10.3573L11.5742 8.80755C15.3978 13.6945 10.443 21.4774 10.3186 21.6018C10.115 21.9525 5.36377 30.2671 7.49049 35.1766C8.2767 36.8814 9.85746 38.085 11.71 38.3893C12.2806 38.5276 12.8651 38.5998 13.4521 38.6043C14.7205 38.6425 15.9485 38.1553 16.8458 37.2581C19.1083 34.8938 18.9273 30.0748 18.0449 26.6584C17.1064 23.5136 18.8863 20.2016 22.0269 19.2488V38.3893C22.0201 38.4835 22.0201 38.578 22.0269 38.6722H21.4612C20.3682 38.6471 19.4618 39.5129 19.4369 40.606C19.4365 40.6213 19.4363 40.6365 19.4363 40.6518V43.627C19.436 44.7203 20.3221 45.6069 21.4154 45.6072C21.4307 45.6072 21.446 45.607 21.4612 45.6066H46.0204C47.1137 45.6066 48 44.7203 48 43.627V40.6518C48 39.5586 47.1137 38.6722 46.0204 38.6722ZM10.2733 7.7555L9.01766 9.30529C8.96972 9.36355 8.90043 9.40017 8.82535 9.4071C8.75267 9.41658 8.67914 9.39607 8.62173 9.35054L4.36828 5.95684C4.26053 5.84682 4.26053 5.67092 4.36828 5.5609L5.62395 3.9998C5.67189 3.94154 5.74118 3.90492 5.81626 3.89799C5.88894 3.88852 5.96247 3.90902 6.01988 3.95455L10.2733 7.34826C10.3326 7.39534 10.3695 7.46506 10.3751 7.54057C10.3744 7.62371 10.3372 7.70233 10.2733 7.7555ZM23.7237 2.75544C23.7237 2.59919 23.8503 2.47263 24.0065 2.47263H43.3959C43.5521 2.47263 43.6787 2.59919 43.6787 2.75544V38.3893C43.6787 38.5456 43.5521 38.6722 43.3959 38.6722H24.0291C23.8735 38.6846 23.7371 38.5685 23.7246 38.4128C23.724 38.405 23.7236 38.3971 23.7237 38.3893V2.75544ZM46.3484 43.627C46.3484 43.7832 46.2219 43.9098 46.0656 43.9098H21.4612C21.305 43.9098 21.1784 43.7832 21.1784 43.627V40.6518C21.1784 40.4956 21.305 40.369 21.4612 40.369H46.0204C46.1745 40.344 46.3198 40.4488 46.3447 40.6029C46.3474 40.619 46.3486 40.6354 46.3484 40.6518V43.627Z" fill="#052356"/>
<path d="M39.5611 5.16504H27.8415C26.7481 5.16504 25.8618 6.05136 25.8618 7.1447V18.8756C25.8618 19.9689 26.7481 20.8553 27.8415 20.8553H39.5611C40.6544 20.8553 41.5407 19.9689 41.5407 18.8756V7.1447C41.5407 6.0515 40.6544 5.16504 39.5611 5.16504ZM39.8439 18.8869C39.8378 19.0386 39.7129 19.1586 39.5611 19.1584H27.8415C27.6852 19.1584 27.5587 19.0319 27.5587 18.8756V7.1447C27.5587 6.98845 27.6852 6.86189 27.8415 6.86189H39.5611C39.7173 6.86189 39.8439 6.98845 39.8439 7.1447V18.8869Z" fill="#FE5943"/>
<path d="M38.2372 24.0562H29.1873C28.7187 24.0562 28.3389 24.436 28.3389 24.9046C28.3389 25.3732 28.7187 25.753 29.1873 25.753H38.2372C38.7058 25.753 39.0856 25.3732 39.0856 24.9046C39.0856 24.436 38.7058 24.0562 38.2372 24.0562Z" fill="#FE5943"/>
</svg>
