<svg width="24" height="45" viewBox="0 0 24 45" fill="none" xmlns="http://www.w3.org/2000/svg">
<path d="M6.74972 45H17.2497C18.9042 45 20.2497 43.6545 20.2497 42V36.0375L23.9952 0.82875C24.0177 0.618 23.9495 0.4065 23.807 0.24825C23.6652 0.0900001 23.462 0 23.2497 0H0.749716C0.537466 0 0.334215 0.0900001 0.192465 0.24825C0.0499655 0.4065 -0.0182841 0.618 0.00421588 0.82875L3.74972 36.0375V42C3.74972 43.6545 5.09522 45 6.74972 45ZM15.6432 40.5C15.308 39.2093 14.144 38.25 12.7497 38.25H11.2497C9.85547 38.25 8.69147 39.2093 8.35622 40.5H5.24972V36.75H18.7497V40.5H15.6432ZM14.0412 40.5H9.95897C10.2192 40.0537 10.6977 39.75 11.2505 39.75H12.7505C13.3025 39.75 13.781 40.0537 14.0412 40.5V40.5ZM18.8255 35.25H5.17397L1.90322 4.5H22.0962L18.8255 35.25ZM17.2497 43.5H6.74972C5.92247 43.5 5.24972 42.8273 5.24972 42H18.7497C18.7497 42.8273 18.077 43.5 17.2497 43.5ZM22.4157 1.5L22.256 3H1.74347L1.58372 1.5H22.4157Z" fill="#052356"/>
<path d="M11.9993 11.25C9.51758 11.25 7.49933 13.2682 7.49933 15.75C7.49933 18.2318 9.51758 20.25 11.9993 20.25C14.4811 20.25 16.4993 18.2318 16.4993 15.75C16.4993 13.2682 14.4811 11.25 11.9993 11.25ZM11.9993 18.75C10.3448 18.75 8.99933 17.4045 8.99933 15.75C8.99933 14.0955 10.3448 12.75 11.9993 12.75C13.6538 12.75 14.9993 14.0955 14.9993 15.75C14.9993 17.4045 13.6538 18.75 11.9993 18.75Z" fill="#FE5943"/>
<path d="M11.2493 7.5H12.7493V9.75H11.2493V7.5Z" fill="#FE5943"/>
<path d="M11.2493 21.75H12.7493V24H11.2493V21.75Z" fill="#FE5943"/>
<path d="M3.74933 15H5.99933V16.5H3.74933V15Z" fill="#FE5943"/>
<path d="M17.9993 15H20.2493V16.5H17.9993V15Z" fill="#FE5943"/>
<path d="M5.63171 10.4473L6.69237 9.3866L8.28336 10.9776L7.2227 12.0383L5.63171 10.4473Z" fill="#FE5943"/>
<path d="M15.7061 20.5245L16.7667 19.4639L18.3577 21.0549L17.297 22.1155L15.7061 20.5245Z" fill="#FE5943"/>
<path d="M5.6308 21.0536L7.22179 19.4626L8.28245 20.5233L6.69146 22.1142L5.6308 21.0536Z" fill="#FE5943"/>
<path d="M15.7076 10.979L17.2986 9.38801L18.3592 10.4487L16.7682 12.0397L15.7076 10.979Z" fill="#FE5943"/>
</svg>
