<svg width="31" height="56" viewBox="0 0 31 56" fill="none" xmlns="http://www.w3.org/2000/svg">
<path d="M8.8749 55.7769H21.7811C23.8148 55.7769 25.4686 54.123 25.4686 52.0894V44.7604L30.0725 1.48303C30.1001 1.22398 30.0163 0.964012 29.8411 0.769496C29.6669 0.574981 29.417 0.464355 29.1561 0.464355H1.49989C1.239 0.464355 0.989176 0.574981 0.814941 0.769496C0.639785 0.964012 0.555895 1.22398 0.583551 1.48303L5.18739 44.7604V52.0894C5.18739 54.123 6.84124 55.7769 8.8749 55.7769ZM19.8065 50.2456C19.3944 48.6591 17.9637 47.48 16.2499 47.48H14.4061C12.6924 47.48 11.2616 48.6591 10.8496 50.2456H7.03114V45.6362H23.6249V50.2456H19.8065ZM17.8374 50.2456H12.8196C13.1395 49.6971 13.7276 49.3237 14.4071 49.3237H16.2508C16.9293 49.3237 17.5175 49.6971 17.8374 50.2456ZM23.718 43.7925H6.93804L2.91774 5.99561H27.7383L23.718 43.7925ZM21.7811 53.9331H8.8749C7.85807 53.9331 7.03114 53.1062 7.03114 52.0894H23.6249C23.6249 53.1062 22.798 53.9331 21.7811 53.9331ZM28.131 2.30811L27.9347 4.15186H2.72138L2.52502 2.30811H28.131Z" fill="white"/>
<path d="M15.3276 14.2925C12.2772 14.2925 9.79639 16.7732 9.79639 19.8237C9.79639 22.8742 12.2772 25.355 15.3276 25.355C18.3781 25.355 20.8589 22.8742 20.8589 19.8237C20.8589 16.7732 18.3781 14.2925 15.3276 14.2925ZM15.3276 23.5112C13.294 23.5112 11.6401 21.8574 11.6401 19.8237C11.6401 17.7901 13.294 16.1362 15.3276 16.1362C17.3613 16.1362 19.0151 17.7901 19.0151 19.8237C19.0151 21.8574 17.3613 23.5112 15.3276 23.5112Z" fill="#FE5943"/>
<path d="M14.4058 9.68311H16.2495V12.4487H14.4058V9.68311Z" fill="#FE5943"/>
<path d="M14.4058 27.1987H16.2495V29.9644H14.4058V27.1987Z" fill="#FE5943"/>
<path d="M5.18701 18.9019H7.95263V20.7456H5.18701V18.9019Z" fill="#FE5943"/>
<path d="M22.7026 18.9019H25.4683V20.7456H22.7026V18.9019Z" fill="#FE5943"/>
<path d="M7.50073 13.3057L8.80446 12.0019L10.7601 13.9575L9.45632 15.2613L7.50073 13.3057Z" fill="#FE5943"/>
<path d="M19.8838 25.6924L21.1875 24.3887L23.1431 26.3442L21.8394 27.648L19.8838 25.6924Z" fill="#FE5943"/>
<path d="M7.49951 26.3428L9.45511 24.3872L10.7588 25.6909L8.80324 27.6465L7.49951 26.3428Z" fill="#FE5943"/>
<path d="M19.8855 13.9595L21.8411 12.0039L23.1448 13.3076L21.1892 15.2632L19.8855 13.9595Z" fill="#FE5943"/>
</svg>
