<svg width="33" height="28" viewBox="0 0 33 28" fill="none" xmlns="http://www.w3.org/2000/svg">
<path d="M27.1 23.1C26 23 24.9 23.4 24 24.2C22.9 25.3 21.1 25.3 19.9 24.2C18.9 23.5 17.8 23.1 16.6 23.1C15.4 23 14.2 23.4 13.3 24.2C12.7 24.7 12 25 11.2 25C10.4 25 9.7 24.7 9.1 24.2C8.1 23.4 6.9 23 5.7 23C4.5 23 3.3 23.4 2.3 24.2C1.7 24.7 0.8 25 0 25V27C1.3 27.1 2.6 26.7 3.6 25.8C4.2 25.3 5.1 25 5.9 25C6.6 25 7.4 25.3 8 25.8C9.8 27.4 12.6 27.4 14.5 25.8C15.1 25.3 15.8 25 16.6 25C17.3 25 18 25.3 18.6 25.8C20.5 27.4 23.2 27.4 25.1 25.8C25.6 25.3 26.4 25 27.1 25C27.8 25 28.5 25.3 29 25.8C29.9 26.5 30.9 26.9 32 27V25C31 25 30.8 24.6 30.3 24.2C29.4 23.5 28.3 23.1 27.1 23.1Z" fill="#052356"/>
<path d="M4.0001 19C4.0001 18.4 4.5001 18 5.1001 18H30.0001L26.5001 21.1H26.7001C27.5001 21.1 28.3001 21.3 28.9001 21.6L31.4001 19.4L31.6001 19.2C32.3001 18.4 32.2001 17.1 31.4001 16.4C31.0001 16.2 30.6001 16 30.1001 16H5.1001C3.4001 16 2.1001 17.3 2.1001 19V22.2C2.6001 21.7 3.3001 21.4 4.0001 21.1V19Z" fill="#052356"/>
<path d="M6.89993 15.0001H12.9999V7.20013C12.9999 6.60013 12.6999 6.00013 12.1999 5.60013C11.2999 4.90013 9.99993 5.10013 9.39993 6.00013L5.29993 11.9001C4.89993 12.5001 4.89993 13.3001 5.19993 14.0001C5.49993 14.6001 6.19993 15.0001 6.89993 15.0001ZM11.0999 7.20013L10.9999 13.0001H6.89993L11.0999 7.20013Z" fill="#052356"/>
<path d="M24 14.0001C24.4 13.4001 24.4 12.6001 24 12.0001L17.7 1.6001C17.3 1.0001 16.7 0.600098 16 0.600098C14.9 0.600098 14 1.5001 14 2.6001V15.0001H22.3C23 15.0001 23.7 14.6001 24 14.0001ZM15.9 2.6001L22.3 13.1001H15.9V2.6001Z" fill="#052356"/>
</svg>
