<svg width="56" height="56" viewBox="0 0 56 56" fill="none" xmlns="http://www.w3.org/2000/svg">
<circle cx="28" cy="28" r="28" fill="#F1CFCF"/>
<path d="M28.0002 25.667C28.619 25.667 29.2125 25.9128 29.6501 26.3504C30.0877 26.788 30.3335 27.3815 30.3335 28.0003C30.3335 28.6192 30.0877 29.2126 29.6501 29.6502C29.2125 30.0878 28.619 30.3337 28.0002 30.3337C27.3813 30.3337 26.7878 30.0878 26.3502 29.6502C25.9127 29.2126 25.6668 28.6192 25.6668 28.0003C25.6668 27.3815 25.9127 26.788 26.3502 26.3504C26.7878 25.9128 27.3813 25.667 28.0002 25.667ZM28.0002 39.667C25.7252 39.667 23.5902 39.0136 21.8052 37.882L25.6668 32.0487C26.3777 32.4541 27.1819 32.6673 28.0002 32.6673C28.8185 32.6673 29.6227 32.4541 30.3335 32.0487L34.1952 37.882C32.3414 39.0527 30.1927 39.6719 28.0002 39.667ZM16.3335 28.0003C16.3335 23.1703 19.2502 19.017 23.4618 17.2437L26.0635 23.7537C25.2498 24.1261 24.5601 24.7242 24.0761 25.4769C23.5922 26.2296 23.3345 27.1054 23.3335 28.0003H16.3335ZM32.6668 28.0003C32.6668 26.1103 31.5468 24.5003 29.9368 23.7537L32.5385 17.2437C34.6544 18.1346 36.4599 19.631 37.7282 21.5448C38.9964 23.4586 39.6709 25.7044 39.6668 28.0003H32.6668Z" fill="white"/>
</svg>
