<svg width="24" height="24" viewBox="0 0 24 24" fill="none" xmlns="http://www.w3.org/2000/svg">
<g clip-path="url(#clip0)">
<path d="M22.2653 15.7852C17.224 19.0352 8.89067 15.4932 10.0153 10.4106C11.0013 5.95458 16.2947 7.23524 17.4987 7.83658C18.7027 8.43791 17.974 5.24391 15.182 4.28524C11.4 2.98658 6.77067 3.26191 5.30734 9.78524C4.30734 14.2432 6.266 20.4932 13.7867 20.5766C21.3073 20.6599 22.2653 15.7852 22.2653 15.7852Z" fill="#226699"/>
<path d="M23.992 16.7952C23.992 15.3645 22.156 15.2392 21.3253 16.0492C19.3293 17.9952 16.3907 18.7239 12.46 17.9565C5.62667 16.6232 5.56601 8.61386 10.238 6.32919C12.7653 5.09319 15.764 6.55652 16.904 7.43252C17.896 8.19452 19.7933 9.20586 19.694 7.93386C19.482 5.22586 14.1747 -0.573476 7.06334 3.09319C-0.0473251 6.75986 8.17062e-06 15.0352 8.17062e-06 16.5352V21.3685C8.17062e-06 22.8412 1.20934 23.9999 2.68201 23.9999H21.3487C22.8213 23.9999 24 22.8412 24 21.3685C24 21.3685 23.9973 16.7992 23.992 16.7952Z" fill="#55ACEE"/>
</g>
<defs>
<clipPath id="clip0">
<rect width="24" height="24" fill="white"/>
</clipPath>
</defs>
</svg>
