<svg width="414" height="1183" viewBox="0 0 414 1183" fill="none" xmlns="http://www.w3.org/2000/svg">
<path d="M0 10.7973L17.25 5.57587C34.5 -0.0395803 69 -9.89125 103.5 26.5599C138 63.0111 172.5 75.2842 207 80.21C241.5 85.1358 276 84.6848 310.5 47.544C345 10.7973 379.5 10.7973 396.75 10.7973H414V263H396.75C379.5 263 345 263 310.5 263C276 263 241.5 263 207 263C172.5 263 138 263 103.5 263C69 263 34.5 263 17.25 263H0V10.7973Z" fill="#B7D6EA"/>
<rect y="257" width="414" height="926" fill="#B7D6EA"/>
</svg>
