<svg width="414" height="1288" viewBox="0 0 414 1288" fill="none" xmlns="http://www.w3.org/2000/svg">
<path d="M0 15.4774L17.25 7.99279C34.5 -0.056736 69 -14.1787 103.5 38.0726C138 90.3239 172.5 107.917 207 114.978C241.5 122.039 276 121.392 310.5 68.1524C345 15.4774 379.5 15.4774 396.75 15.4774H414V377H396.75C379.5 377 345 377 310.5 377C276 377 241.5 377 207 377C172.5 377 138 377 103.5 377C69 377 34.5 377 17.25 377H0V15.4774Z" fill="#E1EDFF"/>
<rect y="362" width="414" height="926" fill="#E1EDFF"/>
</svg>
